<svg width="147" height="35" viewBox="0 0 147 35" fill="none" xmlns="http://www.w3.org/2000/svg">
<g clip-path="url(#clip0_169_5883)">
<path d="M21.1609 25.1888L15.0769 27.8036V27.5421C13.9038 27.839 12.6043 28.0101 11.3735 28.0651C5.65191 28.0101 1.11048 25.0499 1.05763 21.5273V20.2197C2.93686 22.9211 6.76234 24.7311 11.3735 24.6657C12.9334 24.7311 14.5293 24.487 15.8702 24.1427L16.3993 22.835C14.8089 23.3041 13.0729 23.6305 11.3735 23.6196C5.65191 23.6305 1.11048 20.6703 1.05763 17.0823V16.0362C2.93686 18.5333 6.75416 20.3439 11.3735 20.2202C13.4516 20.3439 15.4839 19.9118 17.1926 19.1741L17.4574 17.8664C15.788 18.7371 13.6243 19.2427 11.3735 19.1741C5.65191 19.2427 1.11048 16.2825 1.05763 12.6368V11.5907C2.93686 14.1461 6.76234 15.9561 11.3735 16.0362C13.9943 15.9561 16.4789 15.2712 18.5156 14.2055L18.7804 12.6363C16.9316 13.9908 14.2329 14.8637 11.3735 14.9901C5.65191 14.8637 1.11103 11.9029 1.05763 8.1913C1.11048 4.66114 5.65191 1.7009 11.3735 1.65404C14.7843 1.7009 17.9522 2.88325 19.8385 4.7919L20.0221 5.0943L21.3559 5.09975L21.1609 4.7919C19.2849 2.27137 15.533 0.60791 11.3735 0.60791C5.04275 0.60791 -0.000488281 4.05743 -0.000488281 8.1913V21.7889C0.221815 25.8241 5.15009 29.1107 11.3735 29.1107C15.4839 29.1107 19.1781 27.5126 21.1609 25.1888Z" fill="white"/>
<path d="M18.6857 34.3907L20.8215 25.4174L14.6815 28.0567L18.4192 12.4856H11.2107L13.0796 4.83193H36.0379L34.169 12.4856H26.6946L25.0927 16.7083L33.368 13.2773L18.6857 34.3907ZM22.4234 23.5697L21.3555 28.8484L30.1648 15.6529L22.9568 18.8202L26.1606 11.4302H33.368L34.703 5.88788H13.8805L12.5456 11.4302H19.7536L16.2828 26.2096L22.4234 23.5708V23.5697ZM51.8541 9.88662C51.7909 10.7617 51.4678 11.4504 50.8848 11.9538C50.3018 12.4567 49.5336 12.7079 48.58 12.7079C47.5377 12.7079 46.7166 12.357 46.1194 11.6547C45.5217 10.9529 45.2226 9.98905 45.2226 8.76366V8.2662C45.2226 7.48432 45.3605 6.79507 45.6362 6.19899C45.9119 5.60346 46.3058 5.14577 46.8174 4.82758C47.3296 4.50883 47.9246 4.34973 48.6029 4.34973C49.5412 4.34973 50.2974 4.60146 50.8712 5.10437C51.4444 5.60673 51.7757 6.31287 51.8656 7.2217H50.1896C50.1487 6.69645 50.0021 6.31559 49.7509 6.07912C49.4992 5.84265 49.1167 5.72442 48.6029 5.72442C48.0439 5.72442 47.626 5.92438 47.3487 6.32486C47.0708 6.72533 46.9286 7.34647 46.9209 8.18828V8.80289C46.9209 9.68175 47.0544 10.3241 47.3203 10.7301C47.5873 11.136 48.0068 11.3392 48.5806 11.3392C49.0982 11.3392 49.4845 11.221 49.7395 10.9845C49.995 10.748 50.1411 10.3819 50.1781 9.88662H51.8541ZM60.5087 8.71353C60.5087 9.51448 60.367 10.2163 60.0837 10.8194C59.8009 11.4231 59.3961 11.8884 58.8687 12.2164C58.3418 12.5439 57.7375 12.7079 57.0559 12.7079C56.3819 12.7079 55.7804 12.5461 55.2513 12.2219C54.7228 11.8977 54.3125 11.4351 54.0221 10.8336C53.7317 10.2321 53.5846 9.54008 53.5808 8.75766V8.35556C53.5808 7.55461 53.7252 6.8501 54.0139 6.24149C54.3027 5.63234 54.7103 5.16484 55.2377 4.83847C55.7646 4.51265 56.3672 4.34973 57.045 4.34973C57.7228 4.34973 58.3254 4.51319 58.8523 4.83847C59.3792 5.16484 59.7873 5.63234 60.0755 6.24095C60.3643 6.8501 60.5087 7.55297 60.5087 8.35011V8.71353ZM58.8104 8.34466C58.8104 7.4914 58.6578 6.84356 58.3527 6.40005C58.047 5.95707 57.6111 5.73532 57.045 5.73532C56.4822 5.73532 56.0485 5.95435 55.7428 6.39187C55.4377 6.8294 55.2829 7.4707 55.2797 8.31687V8.71353C55.2797 9.5439 55.4322 10.1885 55.7373 10.6462C56.0425 11.1044 56.4822 11.3338 57.0559 11.3338C57.6182 11.3338 58.0503 11.1131 58.3527 10.6718C58.654 10.2304 58.8066 9.58694 58.8104 8.74132V8.34466ZM64.3799 12.5962H62.7039V4.46143H64.3799V12.5962ZM73.4203 12.5962H71.7438L68.4811 7.24404V12.5962H66.8051V4.46143H68.4811L71.7497 9.82505V4.46143H73.4203V12.5962ZM81.7174 5.81922H79.2258V12.5962H77.5498V5.81922H75.0914V4.46143H81.7174V5.81922ZM88.4389 9.07096H85.2209V11.2499H88.9973V12.5962H83.5444V4.46143H88.9865V5.81922H85.2209V7.75784H88.4389V9.07096ZM92.5286 11.2499H96.0876V12.5962H90.8526V4.46143H92.5286V11.2504V11.2499ZM102.814 9.07041H99.5965V11.2499H103.373V12.5962H97.9205V4.46143H103.362V5.81922H99.5965V7.75784H102.814V9.07096V9.07041ZM111.665 11.5681C111.363 11.9293 110.936 12.2099 110.385 12.4088C109.834 12.6082 109.223 12.7085 108.552 12.7085C107.848 12.7085 107.231 12.5543 106.7 12.247C106.17 11.9397 105.76 11.494 105.471 10.9088C105.182 10.3241 105.035 9.63707 105.027 8.84757V8.29399C105.027 7.48214 105.164 6.77927 105.438 6.18537C105.712 5.59147 106.107 5.13651 106.622 4.82213C107.138 4.5072 107.742 4.34973 108.435 4.34973C109.4 4.34973 110.154 4.57966 110.698 5.04007C111.242 5.49993 111.564 6.16957 111.665 7.04843H110.033C109.959 6.58258 109.794 6.24204 109.539 6.02573C109.284 5.80996 108.932 5.70208 108.485 5.70208C107.915 5.70208 107.482 5.91621 107.183 6.34447C106.886 6.77273 106.735 7.40968 106.731 8.2553V8.77455C106.731 9.62781 106.893 10.2718 107.217 10.7077C107.541 11.1436 108.016 11.3616 108.642 11.3616C109.271 11.3616 109.721 11.2275 109.988 10.9595V9.55698H108.463V8.32232H111.665V11.5681ZM116.905 9.61855H115.57V12.5962H113.894V4.46143H116.917C117.877 4.46143 118.619 4.67556 119.14 5.10437C119.662 5.53263 119.922 6.13742 119.922 6.91984C119.922 7.47506 119.802 7.93765 119.562 8.30815C119.322 8.67866 118.957 8.97397 118.469 9.19355L120.229 12.5178V12.5962H118.43L116.905 9.61855ZM115.57 8.26075H116.922C117.343 8.26075 117.669 8.15341 117.9 7.93928C118.131 7.72515 118.246 7.43038 118.246 7.05388C118.246 6.6703 118.137 6.36844 117.919 6.14887C117.701 5.92929 117.367 5.81922 116.917 5.81922H115.57V8.26075H115.57ZM126.66 10.9197H123.721L123.163 12.5962H121.381L124.409 4.46143H125.962L129.007 12.5962H127.225L126.66 10.9202V10.9197ZM124.174 9.56297H126.208L125.185 6.51719L124.174 9.56297ZM132.314 9.73024V12.5962H130.638V4.46143H133.812C134.422 4.46143 134.96 4.57312 135.423 4.79706C135.888 5.02046 136.244 5.33757 136.493 5.74948C136.743 6.16085 136.868 6.62943 136.868 7.15468C136.868 7.95181 136.595 8.58004 136.049 9.0399C135.503 9.50031 134.748 9.73024 133.784 9.73024H132.314ZM132.314 8.37245H133.812C134.255 8.37245 134.593 8.26838 134.826 8.0597C135.059 7.85101 135.175 7.55297 135.175 7.16612C135.175 6.76728 135.058 6.44473 134.823 6.19899C134.589 5.9538 134.264 5.82685 133.851 5.81922H132.314V8.37245ZM145.511 12.5962H143.835V9.11019H140.567V12.5962H138.89V4.46143H140.567V7.75784H143.835V4.46143H145.511V12.5962Z" fill="white"/>
<path d="M49.8327 20.1292H48.0205V25.1256H47.019V20.1292H45.2231V19.3152H49.8327V20.1292ZM51.7833 21.2789C52.0998 20.9116 52.5003 20.728 52.9847 20.728C53.9055 20.728 54.3719 21.2533 54.385 22.3043V25.1256H53.4157V22.3403C53.4157 22.0422 53.3514 21.8314 53.2223 21.7077C53.0931 21.584 52.9035 21.5224 52.6534 21.5224C52.2649 21.5224 51.9751 21.6951 51.7833 22.0406V25.1256H50.8134V18.9959H51.7833V21.2789ZM57.5937 25.2051C56.9791 25.2051 56.4811 25.0117 56.0991 24.6249C55.7177 24.238 55.5265 23.722 55.5265 23.0785V22.9587C55.5265 22.5277 55.6098 22.1425 55.776 21.8036C55.9297 21.4785 56.1725 21.2038 56.4762 21.0113C56.7773 20.8223 57.1265 20.7239 57.482 20.728C58.0699 20.728 58.5243 20.9154 58.8447 21.2903C59.1651 21.6657 59.3258 22.1964 59.3258 22.8829V23.2742H56.504C56.5334 23.6305 56.6527 23.9122 56.8614 24.1198C57.0701 24.3274 57.3327 24.4314 57.6493 24.4314C58.0939 24.4314 58.4557 24.2516 58.7352 23.892L59.2582 24.3911C59.0849 24.6496 58.8456 24.8571 58.5652 24.9921C58.2764 25.1338 57.9528 25.2051 57.5937 25.2051ZM57.4782 21.5055C57.2117 21.5055 56.9971 21.5992 56.8336 21.7856C56.6701 21.9714 56.5655 22.2307 56.5203 22.5637H58.3674V22.4917C58.3467 22.167 58.2601 21.9218 58.1086 21.7556C57.9566 21.5894 57.7468 21.5061 57.4782 21.5061V21.5055ZM63.1082 25.1256V21.5262H62.4495V20.8076H63.1082V20.4125C63.1082 19.9336 63.2412 19.5636 63.5071 19.3032C63.7735 19.0422 64.1456 18.912 64.6246 18.912C64.7951 18.912 64.976 18.936 65.1673 18.9839L65.1433 19.7424C65.0209 19.7196 64.8967 19.7088 64.7722 19.7102C64.3091 19.7102 64.0781 19.9483 64.0781 20.4245V20.8076H64.9553V21.5262H64.0781V25.1256H63.1082ZM68.607 24.7028C68.3226 25.0379 67.9177 25.2051 67.3936 25.2051C66.9255 25.2051 66.5708 25.0684 66.3305 24.7943C66.0897 24.5202 65.9693 24.1241 65.9693 23.6049V20.8076H66.9392V23.5929C66.9392 24.141 67.1664 24.4156 67.6213 24.4156C68.0921 24.4156 68.4103 24.2467 68.5748 23.9089V20.8076H69.5447V25.1256H68.6309L68.607 24.7028ZM72.0745 19.7582V20.8076H72.8373V21.5262H72.0745V23.9362C72.0745 24.1013 72.1072 24.2206 72.1726 24.2936C72.2379 24.3666 72.354 24.4031 72.5213 24.4031C72.6335 24.4031 72.7463 24.39 72.8607 24.3633V25.1136C72.653 25.1729 72.4382 25.2037 72.2221 25.2051C71.4773 25.2051 71.1052 24.7943 71.1052 23.9721V21.5257H70.3947V20.8076H71.1046V19.7587H72.0745V19.7582ZM76.52 24.7028C76.235 25.0379 75.8308 25.2051 75.3066 25.2051C74.838 25.2051 74.4839 25.0684 74.243 24.7943C74.0022 24.5202 73.8818 24.1241 73.8818 23.6049V20.8076H74.8516V23.5929C74.8516 24.141 75.0794 24.4156 75.5343 24.4156C76.0051 24.4156 76.3228 24.2467 76.4879 23.9089V20.8076H77.4577V25.1256H76.544L76.52 24.7028ZM81.0331 21.6935C80.9025 21.6721 80.7704 21.6615 80.6381 21.6619C80.1935 21.6619 79.8943 21.8319 79.7401 22.1724V25.1256H78.7703V20.8076H79.6965L79.72 21.2903C79.9543 20.9154 80.279 20.728 80.6936 20.728C80.832 20.728 80.9465 20.7465 81.0369 20.7836L81.0331 21.6935ZM83.7983 25.2051C83.1837 25.2051 82.6857 25.0117 82.3037 24.6249C81.9223 24.238 81.7311 23.722 81.7311 23.0785V22.9587C81.7311 22.5277 81.8144 22.1425 81.9806 21.8036C82.1343 21.4785 82.3771 21.2038 82.6808 21.0113C82.9819 20.8223 83.331 20.7239 83.6866 20.728C84.2745 20.728 84.7289 20.9154 85.0493 21.2903C85.3696 21.6657 85.5304 22.1964 85.5304 22.8829V23.2742H82.7085C82.738 23.6305 82.8573 23.9122 83.066 24.1198C83.2747 24.3274 83.5373 24.4314 83.8538 24.4314C84.2984 24.4314 84.6602 24.2516 84.9398 23.892L85.4628 24.3911C85.2895 24.6496 85.0502 24.8571 84.7697 24.9921C84.481 25.1338 84.1573 25.2051 83.7983 25.2051ZM83.6828 21.5055C83.4163 21.5055 83.2016 21.5992 83.0382 21.7856C82.8747 21.9714 82.7701 22.2307 82.7249 22.5637H84.572V22.4917C84.5513 22.167 84.4646 21.9218 84.3132 21.7556C84.1611 21.5894 83.9514 21.5061 83.6828 21.5061V21.5055ZM88.7897 22.9265C88.7897 22.5037 88.8737 22.1229 89.0415 21.7834C89.1953 21.4592 89.4408 21.1872 89.7476 21.001C90.0511 20.819 90.3993 20.728 90.7937 20.728C91.3757 20.728 91.8486 20.9154 92.212 21.2903C92.5749 21.6657 92.7716 22.1632 92.8005 22.7832L92.8048 23.0104C92.8048 23.436 92.7231 23.8168 92.5596 24.1519C92.407 24.4748 92.1625 24.7455 91.8568 24.93C91.5522 25.1136 91.2002 25.2051 90.8014 25.2051C90.1922 25.2051 89.7046 25.0025 89.3384 24.5971C88.9734 24.1912 88.7897 23.6501 88.7897 22.9745V22.9265ZM89.7596 23.0104C89.7596 23.455 89.8517 23.8027 90.0353 24.0538C90.2184 24.3056 90.4739 24.4314 90.8014 24.4314C91.1283 24.4314 91.3833 24.3034 91.5653 24.0479C91.7478 23.7929 91.8388 23.4191 91.8388 22.9265C91.8388 22.4906 91.7451 22.1447 91.5576 21.8891C91.3697 21.6336 91.1152 21.5061 90.7932 21.5061C90.4772 21.5061 90.2255 21.6314 90.0391 21.8831C89.8528 22.1348 89.7596 22.5103 89.7596 23.011V23.0104ZM94.2934 25.1256V21.5262H93.6347V20.8076H94.2934V20.4125C94.2934 19.9336 94.4263 19.5636 94.6922 19.3032C94.9587 19.0422 95.3308 18.912 95.8097 18.912C95.9803 18.912 96.1612 18.936 96.3524 18.9839L96.3284 19.7424C96.2063 19.7196 96.0822 19.7088 95.9579 19.7102C95.4948 19.7102 95.2632 19.9483 95.2632 20.4245V20.8076H96.141V21.5262H95.2632V25.1256H94.2934ZM100.45 20.8076L100.478 21.2587C100.782 20.9045 101.197 20.728 101.723 20.728C102.301 20.728 102.696 20.9487 102.909 21.3906C103.223 20.9487 103.664 20.728 104.233 20.728C104.71 20.728 105.064 20.8593 105.297 21.123C105.53 21.3862 105.649 21.7747 105.654 22.288V25.1256H104.684V22.3163C104.684 22.0422 104.625 21.8412 104.505 21.7137C104.385 21.5856 104.187 21.5219 103.911 21.5219C103.69 21.5219 103.509 21.5813 103.37 21.6995C103.228 21.8216 103.125 21.9835 103.076 22.1643L103.08 25.1256H102.111V22.2841C102.097 21.7763 101.838 21.5219 101.332 21.5219C100.944 21.5219 100.668 21.6799 100.506 21.997V25.1256H99.5366V20.8076H100.45ZM106.795 22.9271C106.795 22.5037 106.879 22.1229 107.046 21.7834C107.2 21.4591 107.446 21.1871 107.753 21.001C108.056 20.819 108.405 20.728 108.799 20.728C109.381 20.728 109.854 20.9154 110.217 21.2903C110.58 21.6657 110.777 22.1632 110.805 22.7832L110.81 23.0104C110.81 23.436 110.728 23.8168 110.565 24.1519C110.412 24.4748 110.167 24.7455 109.862 24.93C109.557 25.1136 109.206 25.2051 108.806 25.2051C108.197 25.2051 107.71 25.0025 107.344 24.5971C106.978 24.1912 106.795 23.6501 106.795 22.9745V22.9265V22.9271ZM107.765 23.0104C107.765 23.455 107.857 23.8027 108.04 24.0538C108.224 24.3056 108.479 24.4314 108.806 24.4314C109.133 24.4314 109.388 24.3034 109.571 24.0479C109.753 23.7929 109.844 23.4191 109.844 22.9265C109.844 22.4906 109.75 22.1447 109.563 21.8891C109.375 21.6336 109.12 21.5061 108.799 21.5061C108.482 21.5061 108.23 21.6314 108.044 21.8831C107.858 22.1348 107.765 22.5103 107.765 23.011V23.0104ZM112.857 20.8076L112.885 21.3067C113.204 20.9209 113.623 20.728 114.142 20.728C115.041 20.728 115.498 21.2429 115.515 22.2721V25.1256H114.545V22.3283C114.545 22.0542 114.485 21.851 114.367 21.7197C114.249 21.5878 114.056 21.5219 113.786 21.5219C113.396 21.5219 113.104 21.699 112.912 22.0526V25.1256H111.943V20.8076H112.857ZM118.73 25.2051C118.116 25.2051 117.618 25.0117 117.236 24.6249C116.854 24.238 116.664 23.722 116.664 23.0785V22.9587C116.664 22.5277 116.747 22.1425 116.913 21.8036C117.067 21.4784 117.31 21.2037 117.613 21.0113C117.914 20.8224 118.263 20.724 118.619 20.728C119.207 20.728 119.661 20.9154 119.982 21.2903C120.302 21.6657 120.463 22.1964 120.463 22.8829V23.2742H117.641C117.671 23.6305 117.789 23.9122 117.998 24.1198C118.207 24.3274 118.47 24.4314 118.787 24.4314C119.231 24.4314 119.593 24.2516 119.872 23.892L120.395 24.3911C120.222 24.6496 119.983 24.8571 119.702 24.9921C119.414 25.1338 119.09 25.2051 118.73 25.2051ZM118.615 21.5055C118.349 21.5055 118.134 21.5992 117.97 21.7856C117.807 21.9714 117.702 22.2307 117.657 22.5637H119.505V22.4917C119.483 22.167 119.397 21.9218 119.245 21.7556C119.094 21.5894 118.884 21.5061 118.615 21.5061V21.5055ZM123.001 23.7367L123.878 20.8076H124.912L123.196 25.78C122.932 26.5063 122.486 26.8697 121.855 26.8697C121.697 26.8672 121.54 26.843 121.388 26.7978V26.0475L121.572 26.0595C121.817 26.0595 122.001 26.0148 122.124 25.926C122.248 25.8366 122.346 25.6868 122.418 25.477L122.558 25.1054L121.041 20.8076H122.087L123.001 23.7367Z" fill="white"/>
</g>
<defs>
<clipPath id="clip0_169_5883">
<rect width="146.023" height="33.7814" fill="white" transform="translate(0 0.609253)"/>
</clipPath>
</defs>
</svg>
