<svg width="121" height="31" viewBox="0 0 121 31" fill="none" xmlns="http://www.w3.org/2000/svg">
<g clip-path="url(#clip0_276_2761)">
<path d="M12.0696 2.88848H14.6984C16.2993 2.65586 17.9342 2.86038 19.4255 3.47982C21.2965 4.59008 22.6535 6.37749 23.2072 8.46075C23.5992 9.55246 23.5992 9.55246 24.5446 9.16581H25.2825V0.523111H0.540029V2.04696H1.55463C1.99554 2.04394 2.43152 2.1384 2.83056 2.32338C3.2296 2.50837 3.58155 2.77918 3.86055 3.11592C4.80598 4.61702 4.96739 6.30007 4.96739 15.0565C4.96739 24.3588 4.75986 26.6332 3.86055 27.7931C3.63854 28.0913 3.3511 28.3362 3.01969 28.5095C2.68828 28.6828 2.32147 28.78 1.94664 28.7938C0.54003 29.044 0.540029 29.0213 0.540029 29.6354C0.462243 29.8407 0.462243 30.0668 0.540029 30.2722H16.1511C16.2544 30.0713 16.3082 29.8492 16.3082 29.624C16.3082 29.3987 16.2544 29.1767 16.1511 28.9758C15.773 28.872 15.3876 28.796 14.9981 28.7483C14.5768 28.6989 14.1603 28.6152 13.7529 28.4982C13.1696 28.0781 12.7075 27.5152 12.4122 26.865C12.117 26.2148 11.9989 25.4999 12.0696 24.7909C11.839 23.2898 11.7237 20.5378 11.7237 18.2634V16.4666H12.6461C13.7953 16.4319 14.9438 16.5544 16.0589 16.8305C16.5931 17.1561 17.0478 17.594 17.3906 18.113C17.7334 18.632 17.9558 19.2192 18.042 19.8327L18.2495 20.5378H19.6561V10.4622H18.3648L18.1572 11.4402C18.0699 12.0676 17.8346 12.6661 17.4702 13.1875C17.1057 13.7089 16.6223 14.1387 16.0589 14.4424C15.5132 14.6026 14.9383 14.6414 14.3755 14.5561H11.7237V12.0998C11.7237 9.55246 11.8621 4.18489 11.9543 3.34336L12.0696 2.88848ZM119.987 20.9244C118.897 19.1941 117.197 17.9223 115.213 17.3536C113.693 16.8849 112.288 16.1105 111.086 15.0792C110.815 14.8212 110.613 14.5019 110.496 14.1491C110.38 13.7962 110.353 13.4206 110.417 13.055C110.419 12.3379 110.709 11.6508 111.224 11.1445C111.573 10.7839 112.015 10.5237 112.502 10.3915C112.99 10.2593 113.504 10.2601 113.991 10.394C114.999 10.6774 115.911 11.2244 116.629 11.9771C117.348 12.7299 117.847 13.6603 118.073 14.6698C118.442 15.6933 118.488 15.6933 119.156 15.4204L119.572 15.2612V9.59795L119.272 9.46148C117.002 8.67506 114.593 8.35012 112.193 8.50624C110.125 8.55791 108.151 9.36898 106.658 10.7806C105.981 11.4058 105.451 12.1695 105.104 13.0181C104.758 13.8667 104.603 14.7797 104.652 15.6933C104.665 17.0901 105.227 18.4273 106.22 19.4233C107.318 20.4877 108.664 21.2689 110.14 21.6977C113.715 23.0851 114.752 23.9721 114.752 25.5869C114.767 26.2679 114.548 26.9338 114.129 27.4752C113.71 28.0167 113.116 28.4014 112.446 28.5664C111.641 28.7409 110.807 28.7409 110.002 28.5664C108.948 28.1628 108.007 27.5168 107.257 26.6821C106.507 25.8474 105.969 24.8482 105.69 23.7674L105.39 23.0396H104.975C104.777 23.0542 104.582 23.1002 104.399 23.1761H104.168V29.6354H104.56C106.118 30.1465 107.725 30.4971 109.356 30.6816H111.662C112.662 30.754 113.668 30.6617 114.637 30.4087C115.867 30.1847 117.017 29.647 117.972 28.849C118.927 28.051 119.653 27.0205 120.079 25.8599C120.354 25.2116 120.495 24.5157 120.494 23.8129C120.585 22.8229 120.41 21.8267 119.987 20.9244ZM98.2649 9.16581C96.8831 8.5936 95.3942 8.31602 93.896 8.3513C92.3978 8.38658 90.9241 8.73391 89.5715 9.37051C88.3002 9.98387 87.1734 10.8534 86.2638 11.9229C85.3543 12.9923 84.6822 14.2381 84.291 15.5796C83.7922 17.0431 83.5809 18.5869 83.6684 20.1284C83.6519 20.9671 83.7214 21.8053 83.8759 22.6302C84.2483 24.6585 85.2411 26.5259 86.7209 27.9814C88.2007 29.4369 90.0967 30.4109 92.1542 30.7726C93.494 30.9391 94.8497 30.9391 96.1895 30.7726C97.5798 30.5309 98.9104 30.0291 100.11 29.2942C101.101 28.7457 101.941 27.9646 102.554 27.0198C102.515 26.8716 102.445 26.7327 102.35 26.6115C102.255 26.4904 102.136 26.3894 102 26.3147C101.737 26.4087 101.489 26.5389 101.263 26.7014C100.116 27.4469 98.7613 27.8207 97.3886 27.7704C96.4775 27.8311 95.5641 27.6912 94.7146 27.3608C93.8651 27.0303 93.1008 26.5176 92.477 25.8599C91.9944 25.4178 91.5961 24.894 91.301 24.3133C90.5844 22.8994 90.1983 21.345 90.1711 19.7645V18.8775H102.946V18.4226C102.974 17.9681 102.974 17.5124 102.946 17.058C102.941 15.452 102.506 13.8759 101.684 12.4897C100.861 11.1035 99.6819 9.95674 98.2649 9.16581ZM91.8313 17.0352H90.2172V15.6933C90.7476 12.259 92.0619 10.212 93.6761 10.212C95.2902 10.212 95.982 12.2362 96.2818 15.9435V16.9897H94.8982L91.8313 17.0352ZM58.6722 8.41526C57.8754 8.38478 57.0834 8.54885 56.3663 8.89288C54.8078 9.6394 53.549 10.881 52.7921 12.4182L52.4924 12.9641V8.41526H52.3771C52.1004 8.41526 43.5685 10.0983 43.2918 10.212C43.0151 10.3258 43.1073 10.3485 43.1073 10.7579C43.1073 11.1673 43.1073 11.2355 43.2918 11.2583L44.1911 11.4402C44.4429 11.4463 44.6901 11.5089 44.9138 11.6231C45.1376 11.7374 45.332 11.9004 45.4824 12.0998C46.0589 12.8503 46.1742 14.1695 46.1742 19.7872C46.2881 22.3163 46.18 24.8503 45.8513 27.361C45.7739 27.7395 45.5793 28.0851 45.2943 28.3499C45.0093 28.6147 44.648 28.7857 44.2602 28.8393L43.4762 28.9985H43.1765V29.6354C43.0928 29.8475 43.0928 30.0828 43.1765 30.2949H56.0665V29.6354C56.1113 29.4177 56.1113 29.1934 56.0665 28.9758C55.2904 28.946 54.5187 28.847 53.7606 28.6801C53.3478 28.4671 53.0101 28.1358 52.792 27.7299C52.5738 27.3239 52.4854 26.8622 52.5385 26.4057C52.354 25.0866 52.2618 21.2201 52.3079 18.2634C52.354 15.3067 52.3079 15.1247 52.5616 14.92C53.3332 14.3365 54.288 14.0387 55.2595 14.0785C56.1752 14.0982 57.0743 14.3238 57.8882 14.7381C58.1704 14.8926 58.4731 15.0075 58.7875 15.0792C58.7875 15.0792 61.0935 9.5752 61.0935 9.32502C60.7984 8.98681 60.4224 8.7265 59.9997 8.56765C59.5769 8.4088 59.1207 8.35642 58.6722 8.41526ZM43.1303 17.9677C43.0499 16.3424 42.5768 14.7597 41.7505 13.3513C40.9242 11.9429 39.7687 10.7496 38.3802 9.87087C36.73 8.99284 34.8942 8.50871 33.0199 8.45736C31.1457 8.40601 29.2854 8.78887 27.5885 9.5752C25.1891 10.8231 23.3775 12.9444 22.5385 15.4886C21.6718 18.3371 21.6718 21.3738 22.5385 24.2223C22.9928 25.7791 23.842 27.1959 25.0058 28.339C26.4553 29.734 28.3243 30.6278 30.3325 30.8863C31.6216 30.9926 32.9174 30.9926 34.2064 30.8863C34.6808 30.8151 35.1505 30.7164 35.613 30.5906C37.49 30.0727 39.1786 29.0384 40.4813 27.6085C41.7839 26.1786 42.6468 24.4124 42.9689 22.5165C43.1991 21.0113 43.2533 19.4851 43.1303 17.9677ZM33.5377 29.3397C31.2318 30.022 29.5024 27.8158 28.9259 23.1761C28.7142 20.747 28.7142 18.3044 28.9259 15.8753C29.3871 12.1453 30.5631 10.2575 32.3848 10.2575C32.7523 10.2351 33.1199 10.2997 33.4569 10.4461C33.7939 10.5925 34.0905 10.8164 34.3217 11.099C35.8667 12.6229 36.6277 15.6478 36.6277 20.1966C36.8195 22.771 36.4093 25.3544 35.4286 27.7476C34.9955 28.4456 34.3255 28.9694 33.5377 29.226V29.3397ZM75.0443 8.87014C74.3936 8.78756 73.7349 8.78756 73.0842 8.87014C71.8352 8.86909 70.6006 9.13281 69.4639 9.64343L68.7491 9.93911V5.00367C68.874 3.33805 68.874 1.66561 68.7491 0C68.4724 0 59.6638 1.66031 59.5254 1.72854C59.4574 1.89646 59.4574 2.08373 59.5254 2.25165C59.5254 2.72927 59.5254 2.70653 60.5631 2.93397C60.8544 2.99841 61.1343 3.10575 61.3932 3.25238C61.8433 3.66987 62.1429 4.22091 62.2464 4.82172C62.509 6.55258 62.5939 8.30515 62.5001 10.0528V30.022L63.1227 30.1585C64.045 30.3632 66.6507 30.7953 67.5039 30.8863C69.2076 31.0199 70.9194 31.0199 72.623 30.8863C74.5141 30.6958 76.3165 29.9999 77.8362 28.8737C79.3559 27.7475 80.5353 26.2336 81.2472 24.4952C81.6716 23.3795 81.9656 22.2196 82.1234 21.0382C82.2607 19.4378 82.2065 17.8271 81.962 16.2392C81.7146 14.4593 80.9182 12.7975 79.6807 11.4793C78.4431 10.161 76.8245 9.25013 75.0443 8.87014ZM69.0028 28.953C69.0028 28.6574 68.7722 18.6955 68.8183 14.7153V11.5994L69.487 11.4402C69.9382 11.3764 70.3963 11.3764 70.8475 11.4402C71.3465 11.3902 71.8484 11.502 72.2772 11.7586C73.1383 12.3448 73.8534 13.1161 74.3686 14.0143C74.8839 14.9125 75.1858 15.9143 75.2518 16.9442C75.4198 18.6004 75.4198 20.269 75.2518 21.9252C75.1138 24.3323 74.1734 26.627 72.5769 28.4527C72.1238 28.8772 71.5547 29.1618 70.9397 29.2715C70.4743 29.3513 69.9985 29.3513 69.5331 29.2715C69.095 29.2715 69.095 29.135 69.095 28.953H69.0028Z" fill="#C4C4C4"/>
</g>
<defs>
<clipPath id="clip0_276_2761">
<rect width="120" height="31" fill="white" transform="translate(0.51709)"/>
</clipPath>
</defs>
</svg>
