<svg width="79" height="18" viewBox="0 0 79 18" fill="none" xmlns="http://www.w3.org/2000/svg">
<path d="M47.9529 3.11715H45.8776V5.34968H44.6351V7.30848H45.8776V12.4336C45.8635 12.8829 45.9293 13.3312 46.0717 13.7576C46.1895 14.0753 46.3835 14.3593 46.6366 14.5846C46.8802 14.8068 47.1719 14.9696 47.4889 15.0602C48.2084 15.2349 48.9592 15.2349 49.6787 15.0602C49.9645 14.9848 50.2402 14.8753 50.4999 14.7341V13.1577C50.1112 13.3216 49.6948 13.4099 49.273 13.4178C49.0987 13.4377 48.9221 13.4187 48.756 13.3623C48.5898 13.3059 48.4382 13.2135 48.312 13.0917C48.0732 12.8665 47.947 12.5714 47.947 12.0744V7.30848H50.4999V5.34968H47.9529V3.11715ZM41.4242 6.04467C40.6689 5.49179 39.7753 5.15891 38.8424 5.08296C37.9095 5.007 36.9738 5.19094 36.139 5.61437C35.3043 6.0378 34.6032 6.68417 34.1134 7.48179C33.6236 8.27942 33.3643 9.19712 33.3643 10.1331C33.3643 11.0691 33.6236 11.9868 34.1134 12.7844C34.6032 13.582 35.3043 14.2284 36.139 14.6519C36.9738 15.0753 37.9095 15.2592 38.8424 15.1833C39.7753 15.1073 40.6689 14.7744 41.4242 14.2215V14.9224H43.4995V5.34191H41.4242V6.04467ZM38.4306 13.1169C37.8385 13.1169 37.2597 12.9413 36.7673 12.6123C36.275 12.2833 35.8913 11.8156 35.6648 11.2685C35.4383 10.7214 35.3791 10.1194 35.4948 9.53868C35.6105 8.95794 35.8957 8.42455 36.3146 8.00597C36.7334 7.5874 37.267 7.30244 37.8478 7.18716C38.4286 7.07187 39.0306 7.13143 39.5776 7.3583C40.1245 7.58517 40.5919 7.96916 40.9206 8.4617C41.2493 8.95424 41.4246 9.5332 41.4242 10.1253C41.4242 10.5184 41.3467 10.9075 41.1963 11.2706C41.0458 11.6337 40.8253 11.9636 40.5473 12.2414C40.2693 12.5192 39.9393 12.7395 39.5761 12.8898C39.2129 13.04 38.8237 13.1172 38.4306 13.1169ZM27.0584 8.26361V10.5738H30.1819C29.9879 11.3946 29.5172 12.1236 28.8491 12.6383C28.1809 13.153 27.356 13.4221 26.5128 13.4004C25.847 13.399 25.1921 13.2308 24.6081 12.9109C24.0241 12.5911 23.5297 12.1299 23.17 11.5695C22.8103 11.0092 22.5969 10.3676 22.5493 9.70349C22.5017 9.03935 22.6213 8.37388 22.8974 7.76795C23.1735 7.16203 23.5971 6.63501 24.1294 6.23512C24.6618 5.83523 25.286 5.57523 25.9448 5.47892C26.6037 5.38261 27.2761 5.45306 27.9007 5.68382C28.5253 5.91459 29.082 6.2983 29.52 6.79985L31.3079 5.33997C30.6247 4.53459 29.7496 3.91422 28.7635 3.53608C27.7774 3.15793 26.7119 3.03419 25.6654 3.17626C24.6188 3.31833 23.6249 3.72164 22.7753 4.34899C21.9256 4.97634 21.2477 5.80753 20.8038 6.7659C20.36 7.72428 20.1647 8.77898 20.2359 9.83272C20.307 10.8865 20.6423 11.9053 21.211 12.7954C21.7796 13.6854 22.5631 14.4179 23.4894 14.9253C24.4156 15.4328 25.4548 15.6988 26.5109 15.6989C27.3211 15.7136 28.126 15.5646 28.8773 15.2607C29.6285 14.9568 30.3107 14.5043 30.8828 13.9303C31.8508 12.9282 32.4521 11.6284 32.5892 10.2418C32.6455 9.58068 32.6552 8.91641 32.6183 8.2539L27.0584 8.26361ZM73.7434 5.0643C72.7409 5.0643 71.7609 5.36158 70.9273 5.91855C70.0938 6.47552 69.4441 7.26716 69.0604 8.19336C68.6768 9.11956 68.5764 10.1387 68.772 11.122C68.9676 12.1052 69.4503 13.0084 70.1592 13.7173C70.8681 14.4262 71.7713 14.9089 72.7545 15.1045C73.7378 15.3001 74.7569 15.1997 75.6831 14.8161C76.6094 14.4324 77.401 13.7827 77.958 12.9492C78.5149 12.1156 78.8122 11.1356 78.8122 10.1331C78.8132 9.46681 78.6829 8.80685 78.4286 8.19098C78.1743 7.5751 77.8011 7.01541 77.3303 6.5439C76.8596 6.0724 76.3004 5.69833 75.6849 5.44312C75.0695 5.1879 74.4097 5.05653 73.7434 5.05654V5.0643ZM73.7434 13.1247C73.1513 13.1247 72.5724 12.9491 72.0801 12.6201C71.5878 12.291 71.2041 11.8234 70.9776 11.2763C70.751 10.7292 70.6919 10.1272 70.8075 9.54644C70.9232 8.9657 71.2085 8.43231 71.6273 8.01374C72.0462 7.59516 72.5798 7.31021 73.1606 7.19492C73.7414 7.07964 74.3434 7.13919 74.8903 7.36607C75.4373 7.59294 75.9047 7.97693 76.2334 8.46947C76.5621 8.96201 76.7373 9.54096 76.7369 10.1331C76.7349 10.9255 76.4185 11.6847 75.8573 12.2441C75.2961 12.8036 74.5358 13.1174 73.7434 13.1169V13.1247ZM65.2792 14.9301H67.5117V6.33199H65.2792V14.9301ZM61.8683 14.9301H64.1008V12.6898H61.8683V14.9301ZM56.2113 5.0643C55.3157 5.06344 54.4359 5.29987 53.6614 5.74954C52.8869 6.19921 52.2453 6.84606 51.802 7.62424C51.3587 8.40242 51.1296 9.28416 51.1378 10.1797C51.146 11.0752 51.3914 11.9526 51.8489 12.7225C52.3064 13.4924 52.9597 14.1274 53.7424 14.5627C54.525 14.9981 55.409 15.2183 56.3045 15.201C57.1999 15.1836 58.0747 14.9294 58.8399 14.4641C59.6051 13.9988 60.2334 13.339 60.6608 12.552L58.7874 11.6415C58.4877 12.1502 58.0443 12.559 57.5129 12.8163C56.9815 13.0737 56.3859 13.1682 55.801 13.0879C55.216 13.0076 54.6679 12.7561 54.2255 12.365C53.7832 11.974 53.4663 11.4609 53.3148 10.8902H61.2277C61.3381 10.1681 61.2913 9.43053 61.0902 8.72816C60.8892 8.02578 60.5388 7.37514 60.063 6.82077C59.5871 6.2664 58.9971 5.8214 58.3333 5.51623C57.6696 5.21105 56.9477 5.05292 56.2171 5.05265L56.2113 5.0643ZM53.4099 9.07703C53.624 8.50731 54.0068 8.01645 54.5072 7.66996C55.0075 7.32347 55.6017 7.13784 56.2103 7.13784C56.8189 7.13784 57.4131 7.32347 57.9134 7.66996C58.4138 8.01645 58.7966 8.50731 59.0107 9.07703H53.4099ZM65.2792 5.35744H67.5117V3.12491H65.2792V5.35744Z" fill="#EDEDED"/>
<path d="M9.18799 13.9504C7.87506 13.9504 6.61592 13.4288 5.68754 12.5004C4.75916 11.5721 4.2376 10.3129 4.2376 9C4.2376 7.68707 4.75916 6.42792 5.68754 5.49955C6.61592 4.57117 7.87506 4.04961 9.18799 4.04961V0C7.40796 0 5.6679 0.52784 4.18786 1.51677C2.70782 2.5057 1.55427 3.91131 0.873077 5.55585C0.191888 7.20038 0.0136578 9.00998 0.360925 10.7558C0.708191 12.5016 1.56536 14.1053 2.82403 15.364C4.0827 16.6226 5.68635 17.4798 7.43218 17.8271C9.17801 18.1743 10.9876 17.9961 12.6321 17.3149C14.2767 16.6337 15.6823 15.4802 16.6712 14.0001C17.6601 12.5201 18.188 10.78 18.188 9H14.1384C14.1384 10.3129 13.6168 11.5721 12.6884 12.5004C11.7601 13.4288 10.5009 13.9504 9.18799 13.9504Z" fill="#EDEDED"/>
<path d="M14.1381 4.04978H9.18773V9.00016H14.1381V4.04978Z" fill="#EDEDED"/>
</svg>
