<svg width="177" height="29" viewBox="0 0 177 29" fill="none" xmlns="http://www.w3.org/2000/svg">
<g clip-path="url(#clip0_169_5912)">
<path d="M4.14868 3.50233C4.14868 5.55111 3.80298 6.64379 3.11157 6.91696C2.55845 7.12184 2.07446 8.00964 2.07446 8.96574C2.07446 9.85354 2.55845 10.7413 3.11157 11.0145C3.94126 11.2877 4.14868 10.8096 4.14868 9.03403C4.14868 6.78037 4.28696 6.64379 6.5686 6.64379C8.22798 6.64379 8.98852 6.30232 8.98852 5.6194C8.98852 5.07306 9.47251 4.59501 10.0256 4.59501C10.8553 4.59501 11.0627 5.68769 11.0627 10.0584C11.0627 14.4292 11.2702 15.5218 12.0999 15.5218C12.9295 15.5218 13.137 14.4292 13.137 10.0584C13.137 5.07306 13.2752 4.59501 14.5198 4.59501C15.2803 4.59501 15.9026 5.07306 15.9026 5.6194C15.9026 6.30232 16.594 6.64379 17.9768 6.64379C19.9127 6.64379 20.051 6.84867 20.051 9.03403C20.051 10.6048 20.3276 11.356 20.9499 11.2194C21.503 11.1511 21.8487 12.1755 21.987 14.2926C22.1252 16.6145 22.4709 17.5706 23.2315 17.5706C23.7155 17.5706 24.1995 17.0926 24.1995 16.5462C24.1995 15.9999 24.6834 15.5218 25.2366 15.5218C25.7897 15.5218 26.2737 15.0438 26.2737 14.4974C26.2737 13.9511 25.7897 13.4731 25.2366 13.4731C24.6834 13.4731 24.1995 12.995 24.1995 12.4487C24.1995 11.9023 23.7155 11.4243 23.1624 11.4243C22.4709 11.4243 22.1252 10.6731 22.1252 9.03403C22.1252 7.39501 21.7795 6.64379 21.0881 6.64379C20.3276 6.64379 20.051 5.82428 20.051 3.57062V0.497446H12.0999H4.14868V3.50233Z" fill="#F9F9F9"/>
<path d="M32.2892 8.42072C32.0126 8.69389 31.8052 11.4939 31.8052 14.6354C31.8052 19.8256 31.9435 20.3036 33.188 20.3036C34.2942 20.3036 34.5708 19.8256 34.5708 17.9134V15.5232H38.0278H41.4849V17.9134C41.4849 19.8256 41.7614 20.3036 42.8677 20.3036C44.1813 20.3036 44.2505 19.8256 44.2505 14.089C44.2505 8.55731 44.1122 7.94267 43.0751 8.14755C42.1763 8.28414 41.7614 9.10365 41.6231 10.9476L41.4157 13.4744H38.0278H34.6399L34.4325 10.9476C34.2251 8.55731 33.2571 7.46463 32.2892 8.42072Z" fill="#F9F9F9"/>
<path d="M46.8087 8.48902C46.5321 8.69389 46.3247 11.4939 46.3247 14.6354C46.3247 19.8256 46.463 20.3036 47.7075 20.3036C48.8138 20.3036 49.0903 19.8256 49.0903 17.8451V15.4549L52.7548 15.6597C56.281 15.8646 56.3501 15.9329 56.5575 18.1183C56.6958 19.4841 57.1798 20.3036 57.8021 20.3036C58.5626 20.3036 58.77 19.0744 58.77 14.1573V8.01097H53.0313C49.8509 8.01097 47.0161 8.21585 46.8087 8.48902ZM56.5575 11.9036C56.3501 12.8597 55.5896 13.1329 52.8931 13.1329C50.1966 13.1329 49.436 12.8597 49.2286 11.9036C49.0212 10.9476 49.5743 10.7427 52.8931 10.7427C56.2118 10.7427 56.7649 10.9476 56.5575 11.9036Z" fill="#F9F9F9"/>
<path d="M61.5352 14.1573V20.3036H67.4121C72.1828 20.3036 73.2891 20.0988 73.2891 19.2793C73.2891 18.4597 72.3211 18.2549 68.4492 18.2549H63.6094V14.4988V10.7427H68.4492C72.8051 10.7427 73.2891 10.6061 73.2891 9.37682C73.2891 8.14755 72.8051 8.01097 67.4121 8.01097H61.5352V14.1573Z" fill="#F9F9F9"/>
<path d="M76.0547 14.1573C76.0547 19.1427 76.2621 20.3036 77.0918 20.3036C77.8523 20.3036 78.1289 19.5524 78.1289 17.8451C78.1289 15.4549 78.198 15.4549 80.7563 15.6597C82.4156 15.7963 83.2453 16.1378 83.107 16.7524C83.0379 17.2988 83.591 17.8451 84.3516 18.05C85.1121 18.2549 85.7344 18.8695 85.7344 19.3476C85.7344 19.8939 86.3566 20.3036 87.1172 20.3036C87.8777 20.3036 88.5 19.8256 88.5 19.2793C88.5 18.7329 87.8777 18.2549 87.1172 18.2549C86.2184 18.2549 85.7344 17.7768 85.7344 16.889C85.7344 16.1378 85.2504 15.5232 84.6973 15.5232C84.1441 15.5232 83.6602 15.0451 83.6602 14.4988C83.6602 13.9524 84.1441 13.4744 84.6973 13.4744C85.2504 13.4744 85.7344 12.8597 85.7344 12.1085C85.7344 11.1524 86.2184 10.7427 87.1863 10.7427C88.9148 10.7427 88.7074 8.48902 86.9098 8.14755C86.0801 8.01097 85.7344 8.35243 85.7344 9.30853C85.7344 10.1963 85.3195 10.7427 84.6281 10.7427C84.0059 10.7427 83.3836 11.3573 83.1762 12.1768C82.8996 13.2695 82.3465 13.4744 80.618 13.3378C78.682 13.1329 78.4746 12.8597 78.2672 10.5378C78.1289 8.89877 77.7141 8.01097 77.0227 8.01097C76.2621 8.01097 76.0547 9.24024 76.0547 14.1573Z" fill="#F9F9F9"/>
<path d="M90.5742 14.1573V20.3036H96.7969C101.844 20.3036 103.02 20.0988 103.02 19.2793C103.02 18.4597 102.052 18.2549 98.1797 18.2549C93.8238 18.2549 93.3398 18.1183 93.3398 16.889C93.3398 15.7963 93.8238 15.5232 95.7598 15.5232C97.4191 15.5232 98.1797 15.1817 98.1797 14.4988C98.1797 13.8158 97.4191 13.4744 95.7598 13.4744C93.8238 13.4744 93.3398 13.2012 93.3398 12.1085C93.3398 10.8793 93.8238 10.7427 98.2488 10.7427C102.536 10.7427 103.089 10.6061 102.881 9.51341C102.674 8.55731 101.706 8.35243 96.5895 8.14755L90.5742 7.94267V14.1573Z" fill="#F9F9F9"/>
<path d="M105.578 8.48902C105.301 8.69389 105.094 11.4939 105.094 14.6354C105.094 19.8256 105.232 20.3036 106.477 20.3036C107.583 20.3036 107.859 19.8256 107.859 17.9134C107.859 15.6597 107.998 15.5232 110.279 15.5232C112.215 15.5232 112.699 15.7963 112.699 16.889C112.699 17.6402 113.183 18.2549 113.736 18.2549C114.289 18.2549 114.773 18.7329 114.773 19.2793C114.773 19.8256 115.396 20.3036 116.156 20.3036C116.917 20.3036 117.539 19.8939 117.539 19.3476C117.539 18.8695 116.917 18.2549 116.156 18.05C115.396 17.8451 114.773 17.3671 114.773 16.889C114.773 16.411 115.396 15.9329 116.156 15.728C117.332 15.3866 117.539 14.7719 117.539 11.6988V8.01097H111.8C108.62 8.01097 105.785 8.21585 105.578 8.48902ZM114.773 12.1085C114.773 13.2695 114.289 13.4744 111.316 13.4744C108.343 13.4744 107.859 13.2695 107.859 12.1085C107.859 10.9476 108.343 10.7427 111.316 10.7427C114.289 10.7427 114.773 10.9476 114.773 12.1085Z" fill="#F9F9F9"/>
<path d="M120.305 14.1573C120.305 19.1427 120.512 20.3036 121.342 20.3036C122.172 20.3036 122.379 19.3476 122.379 15.5232V10.7427H126.182H129.985V15.5232C129.985 19.3476 130.192 20.3036 131.022 20.3036C131.851 20.3036 132.059 19.1427 132.059 14.1573V8.01097H126.182H120.305V14.1573Z" fill="#F9F9F9"/>
<path d="M134.824 14.1573V20.3036H140.701H146.578V14.1573V8.01097H140.701H134.824V14.1573ZM144.366 14.2939L144.158 17.9134H140.701H137.244L137.037 14.2939L136.83 10.7427H140.701H144.573L144.366 14.2939Z" fill="#F9F9F9"/>
<path d="M149.344 14.1573V20.3036H155.567H161.858L161.651 14.2939L161.444 8.35243L155.428 8.14755L149.344 7.94267V14.1573ZM159.024 14.5671V18.3232L155.428 18.1183L151.764 17.9134L151.556 15.25C151.211 11.2207 151.626 10.7427 155.567 10.7427H159.024V14.5671Z" fill="#F9F9F9"/>
<path d="M163.864 14.1573C163.864 19.8256 163.933 20.3036 165.246 20.3036C166.491 20.3036 166.629 19.8256 166.629 15.5232V10.7427H170.086H173.543V15.5232C173.543 19.8939 173.681 20.3036 174.926 20.3036C176.309 20.3036 176.378 19.9622 176.171 14.2939L175.963 8.35243L169.948 8.14755L163.864 7.94267V14.1573Z" fill="#F9F9F9"/>
<path d="M0.000244141 14.4974C0.000244141 16.7511 0.276807 17.5706 1.03735 17.5706C1.7979 17.5706 2.07446 16.7511 2.07446 14.4974C2.07446 12.2438 1.7979 11.4243 1.03735 11.4243C0.276807 11.4243 0.000244141 12.2438 0.000244141 14.4974Z" fill="#F9F9F9"/>
<path d="M2.07446 20.3037C2.07446 21.6695 2.42017 22.3524 3.11157 22.3524C3.87212 22.3524 4.14868 23.1719 4.14868 25.4256V28.4988H12.0999H20.051V25.4256C20.051 23.1719 20.3276 22.3524 21.0881 22.3524C21.7795 22.3524 22.1252 21.6695 22.1252 20.3037C22.1252 18.9378 21.7795 18.2549 21.0881 18.2549C20.3967 18.2549 20.051 18.9378 20.051 20.3037C20.051 22.1476 19.8436 22.3524 17.9768 22.3524C16.594 22.3524 15.9026 22.6939 15.9026 23.3768C15.9026 24.128 15.0729 24.4012 12.4456 24.4012C9.81821 24.4012 8.98852 24.128 8.98852 23.3768C8.98852 22.6939 8.22798 22.3524 6.5686 22.3524C4.3561 22.3524 4.14868 22.2159 4.14868 20.3037C4.14868 18.9378 3.80298 18.2549 3.11157 18.2549C2.42017 18.2549 2.07446 18.9378 2.07446 20.3037Z" fill="#F9F9F9"/>
</g>
<defs>
<clipPath id="clip0_169_5912">
<rect width="177" height="28" fill="white" transform="translate(0 0.5)"/>
</clipPath>
</defs>
</svg>
