<svg width="79" height="18" viewBox="0 0 79 18" fill="none" xmlns="http://www.w3.org/2000/svg">
<path d="M61.8494 8.99924C61.8494 8.53194 61.8494 8.10059 61.8314 7.70518C61.8135 7.30978 61.7775 6.93234 61.7236 6.59086C61.6697 6.24937 61.5618 5.92585 61.4181 5.62031C61.2743 5.31477 61.0586 5.0272 60.789 4.75761C60.4116 4.38017 59.9982 4.0926 59.5309 3.8949C59.0636 3.6972 58.5244 3.58936 57.9133 3.58936C57.3022 3.58936 56.763 3.6972 56.2957 3.8949C55.8284 4.0926 55.3971 4.38017 55.0196 4.75761C54.7501 5.0272 54.5524 5.31477 54.4086 5.62031C54.2648 5.92585 54.157 6.24937 54.103 6.59086C54.0491 6.93234 54.0132 7.30978 53.9952 7.70518C53.9772 8.10059 53.9772 8.53194 53.9772 8.99924C53.9772 9.46654 53.9772 9.87992 53.9952 10.2933C54.0132 10.6887 54.0491 11.0661 54.103 11.4076C54.157 11.7491 54.2648 12.0726 54.4086 12.3782C54.5524 12.6837 54.768 12.9713 55.0196 13.2409C55.3971 13.6183 55.8105 13.9059 56.2957 14.1036C56.763 14.3013 57.3022 14.4091 57.9133 14.4091C58.5244 14.4091 59.0456 14.3013 59.5309 14.1036C59.9982 13.9059 60.4295 13.6183 60.789 13.2409C61.0586 12.9713 61.2563 12.6837 61.4181 12.3782C61.5618 12.0726 61.6697 11.7491 61.7236 11.4076C61.7775 11.0661 61.8314 10.6887 61.8314 10.2933C61.8494 9.87992 61.8494 9.46654 61.8494 8.99924ZM59.7825 8.99924C59.7825 9.50249 59.7825 9.93384 59.7645 10.2753C59.7466 10.6168 59.7286 10.8864 59.6747 11.1021C59.6387 11.3178 59.5848 11.4975 59.5129 11.6233C59.441 11.7671 59.3691 11.8929 59.2613 12.0007C59.1175 12.1805 58.9198 12.3063 58.7041 12.4141C58.4705 12.522 58.2189 12.5579 57.9313 12.5759C57.6437 12.5759 57.3921 12.522 57.1584 12.4141C56.9248 12.3063 56.7451 12.1805 56.5833 12.0007C56.4755 11.8929 56.4036 11.7671 56.3317 11.6233C56.2598 11.4795 56.2059 11.3178 56.1699 11.1021C56.134 10.8864 56.098 10.6168 56.098 10.2753C56.0801 9.93384 56.0801 9.52046 56.0801 8.99924C56.0801 8.496 56.0801 8.06464 56.098 7.72316C56.116 7.38167 56.134 7.11207 56.1699 6.8964C56.2059 6.68072 56.2598 6.50099 56.3317 6.37518C56.4036 6.23139 56.4755 6.10558 56.5833 5.99775C56.7271 5.81802 56.9248 5.6922 57.1584 5.58437C57.3921 5.47653 57.6437 5.44058 57.9313 5.42261C58.2189 5.42261 58.4705 5.47653 58.7041 5.58437C58.9198 5.6922 59.1175 5.81802 59.2613 5.99775C59.3691 6.10558 59.441 6.23139 59.5129 6.37518C59.5848 6.51896 59.6387 6.68072 59.6747 6.8964C59.7106 7.11207 59.7466 7.38167 59.7645 7.72316C59.7645 8.06464 59.7825 8.496 59.7825 8.99924Z" fill="#EDEDED"/>
<path d="M78.4206 3.85891C78.4206 3.75108 78.3307 3.67918 78.2408 3.67918H76.5334C76.4256 3.67918 76.3537 3.76905 76.3537 3.85891V10.2034L72.166 3.7331C72.13 3.69716 72.112 3.67918 72.0581 3.67918H70.4585C70.3687 3.67918 70.2788 3.76905 70.2788 3.85891C70.2788 7.29176 70.2788 10.7246 70.2788 14.1395C70.2788 14.2473 70.3687 14.3192 70.4585 14.3192H72.166C72.2738 14.3192 72.3457 14.2294 72.3457 14.1395V7.77704L76.5334 14.2653C76.5694 14.3012 76.5873 14.3192 76.6412 14.3192H78.2408C78.3487 14.3192 78.4206 14.2294 78.4206 14.1395V3.85891Z" fill="#EDEDED"/>
<path d="M66.9185 3.85891C66.9185 3.75108 66.8286 3.67918 66.7387 3.67918H65.0313C64.9235 3.67918 64.8516 3.76905 64.8516 3.85891V14.1395C64.8516 14.2473 64.9414 14.3192 65.0313 14.3192H66.7387C66.8466 14.3192 66.9185 14.2294 66.9185 14.1395V3.85891Z" fill="#EDEDED"/>
<path d="M46.4105 8.99924C46.4105 8.496 46.4105 8.06464 46.4285 7.72316C46.4465 7.38167 46.4645 7.11207 46.5004 6.8964C46.6622 5.97977 47.3631 5.44058 48.2618 5.44058C48.8549 5.44058 49.3761 5.65626 49.7176 6.1595C49.8614 6.37518 49.9692 6.6268 50.0411 6.91437C50.0411 6.95032 50.0591 6.96829 50.095 6.96829H52.108C52.1439 6.96829 52.1439 6.95032 52.1439 6.91437C51.9283 5.67423 51.2633 4.54193 50.077 3.98477C49.5378 3.73314 48.9088 3.58936 48.2258 3.58936C47.0935 3.58936 46.123 3.98476 45.3501 4.75761C44.9008 5.20693 44.6132 5.74612 44.4874 6.35721C44.3616 6.95032 44.3077 7.831 44.3077 8.99924C44.3077 10.1675 44.3616 11.0482 44.4874 11.6413C44.6132 12.2524 44.9188 12.7916 45.3501 13.2409C46.123 14.0137 47.0935 14.4091 48.2258 14.4091C48.9088 14.4091 49.5199 14.2833 50.077 14.0137C51.2453 13.4566 51.9283 12.3422 52.1439 11.0841C52.1439 11.0482 52.1439 11.0302 52.108 11.0302H50.095C50.0591 11.0302 50.0411 11.0482 50.0411 11.0841C49.9692 11.3717 49.8614 11.6233 49.7176 11.839C49.3761 12.3243 48.8549 12.5399 48.2618 12.5579C47.3631 12.5579 46.6622 12.0187 46.5004 11.1021C46.4645 10.8864 46.4285 10.6168 46.4285 10.2753C46.4105 9.93384 46.4105 9.50249 46.4105 8.99924Z" fill="#EDEDED"/>
<path d="M25.0949 3.85945C25.0949 3.75161 25.0051 3.67972 24.9152 3.67972H23.2078C23.0999 3.67972 23.028 3.76958 23.028 3.85945V14.14C23.028 14.2479 23.1179 14.3198 23.2078 14.3198H24.9152C25.023 14.3198 25.0949 14.2299 25.0949 14.14V11.1206L26.4789 9.46704L29.3006 14.2658C29.3186 14.3018 29.3545 14.3198 29.4085 14.3198H31.4933C31.5832 14.3198 31.6012 14.2658 31.5652 14.176L27.8628 7.90338L31.2597 3.8235C31.3316 3.73364 31.2956 3.66175 31.1878 3.66175H28.9052C28.8693 3.66175 28.8513 3.66175 28.8333 3.69769L25.0949 8.17298V3.85945Z" fill="#EDEDED"/>
<path d="M37.5859 12.5579C36.6153 12.5579 35.7526 11.6592 35.7526 10.5988V3.85891C35.7526 3.75108 35.6628 3.67918 35.5729 3.67918H33.8655C33.7576 3.67918 33.6857 3.76905 33.6857 3.85891V10.5808C33.6857 12.9353 35.4471 14.4271 37.6039 14.4271C39.7606 14.4271 41.522 12.9353 41.522 10.5808V3.85891C41.522 3.75108 41.4321 3.67918 41.3422 3.67918H39.6348C39.527 3.67918 39.4551 3.76905 39.4551 3.85891V10.5988C39.4191 11.6592 38.5384 12.5579 37.5859 12.5579Z" fill="#EDEDED"/>
<path d="M5.7738 9L11.0938 14.32L14.4548 10.9591C15.0479 10.3659 16.0184 10.3659 16.6115 10.9591C17.2047 11.5522 17.2047 12.5227 16.6115 13.1158L12.1722 17.5552C11.5791 18.1483 10.6085 18.1483 10.0154 17.5552L3.63501 11.1568V14.9671C3.63501 15.7938 2.95203 16.4948 2.1073 16.4948C1.26257 16.4948 0.57959 15.8118 0.57959 14.9671V3.0689C0.57959 2.22416 1.26257 1.54119 2.1073 1.54119C2.95203 1.54119 3.63501 2.22416 3.63501 3.0689V6.84324L10.0334 0.444833C10.6265 -0.148278 11.5971 -0.148278 12.1902 0.444833L16.6295 4.88418C17.2226 5.47729 17.2226 6.44783 16.6295 7.04094C16.0364 7.63405 15.0659 7.63405 14.4727 7.04094L11.1118 3.67998L5.7738 9ZM11.1118 7.47229C10.2671 7.47229 9.58408 8.15527 9.58408 9C9.58408 9.84473 10.2671 10.5277 11.1118 10.5277C11.9565 10.5277 12.6395 9.84473 12.6395 9C12.6215 8.15527 11.9385 7.47229 11.1118 7.47229Z" fill="#EDEDED"/>
</svg>
