<svg width="108" height="31" viewBox="0 0 108 31" fill="none" xmlns="http://www.w3.org/2000/svg">
<g clip-path="url(#clip0_281_2811)">
<path d="M78.9133 23.32C75.2594 23.32 72.9889 21.2035 72.9889 17.7919C72.9889 14.2513 75.0841 12.0484 78.4577 12.0484H78.7407C79.1639 12.0484 79.7465 12.0622 80.5424 12.1617V7.88786H82.9254V22.9348C82.9254 22.9348 80.6612 23.32 78.9133 23.32ZM78.8919 13.9247C76.5834 13.9247 75.461 15.1708 75.461 17.7326C75.461 20.0327 76.8154 21.4624 78.9913 21.4624C79.4096 21.4624 79.8887 21.4348 80.5418 21.3788V14.078C79.8894 13.9731 79.3634 13.9247 78.8919 13.9247ZM46.2714 22.9749L39.8341 11.7412L39.832 22.9749H37.5885V8.75353H40.7295L47.1667 19.8871L47.164 8.75353H49.4372V22.9749H46.2714ZM66.776 23.1937C65.6922 23.1937 64.5622 23.0722 63.2167 22.8133L63.0711 22.7857V20.799L63.2837 20.8445C64.4704 21.0979 65.4948 21.3139 66.5199 21.3139C67.3476 21.3139 69.2757 21.1842 69.2757 19.9657C69.2757 18.9441 67.9434 18.6873 66.8734 18.4822L66.8057 18.4684C66.6055 18.4312 66.4171 18.3932 66.2583 18.3532C64.6885 17.9459 63.0138 17.3335 63.0138 15.2301C63.0138 13.1785 64.6374 12.0029 67.4691 12.0029C68.8284 12.0029 69.8148 12.1478 70.608 12.2666L70.9932 12.3232V14.2513L70.7882 14.214C69.8908 14.049 68.8387 13.8792 67.8274 13.8792C66.7029 13.8792 65.3685 14.0897 65.3685 15.09C65.3685 15.9205 66.4606 16.1579 67.7252 16.4334C69.4938 16.8158 71.6863 17.2963 71.6863 19.7096C71.6863 21.9235 69.8984 23.1937 66.776 23.1937ZM89.6154 23.1937C87.1488 23.1937 84.8646 22.7588 84.8646 19.6095C84.8646 16.1821 88.3969 16.1821 90.5086 16.1821C90.7185 16.1821 91.7112 16.2283 92.0156 16.2415C92.0128 14.3189 91.9887 13.8605 89.2005 13.8605C88.0953 13.8605 86.8679 14.0787 85.7841 14.2733L85.577 14.3106V12.4122L85.7164 12.3826C86.9728 12.1271 88.1843 12.0029 89.4193 12.0029C92.1212 12.0029 94.4103 12.2749 94.4103 15.6271V22.9376L94.246 22.9562C92.3746 23.1661 90.8883 23.1937 89.6154 23.1937ZM90.4493 17.8782C88.4128 17.8782 87.1509 18.1778 87.1509 19.6689C87.1509 21.3947 88.7607 21.5376 90.2712 21.5376C90.8345 21.5376 91.8485 21.4651 92.1585 21.443V17.9376C91.7222 17.9189 90.5866 17.8782 90.4493 17.8782ZM56.1782 23.1937C53.7082 23.1937 51.4246 22.7588 51.4246 19.6095C51.4246 16.1821 54.957 16.1821 57.068 16.1821C57.2786 16.1821 58.2733 16.2283 58.5784 16.2415C58.5757 14.3189 58.5488 13.8605 55.7606 13.8605C54.6547 13.8605 53.4273 14.0787 52.3435 14.2733L52.1364 14.3106V12.4122L52.2793 12.3826C53.4966 12.1308 54.7363 12.0036 55.9794 12.0029C58.6806 12.0029 60.9704 12.2749 60.9704 15.6271V22.9376L60.8054 22.9562C58.9347 23.1661 57.4484 23.1937 56.1782 23.1937ZM57.0087 17.8782C54.9729 17.8782 53.7137 18.1778 53.7137 19.6689C53.7137 21.3947 55.3208 21.5376 56.8312 21.5376C57.3973 21.5376 58.4114 21.4651 58.7213 21.443V17.9376C58.2816 17.9189 57.146 17.8782 57.0087 17.8782Z" fill="white"/>
<path d="M103.529 27.7642V23.099C102.599 23.2288 102.105 23.2288 101.706 23.2288C100.762 23.2288 99.7132 23.0238 98.9014 22.6814C97.0838 21.9255 96 20.0064 96 17.544C96 16.3152 96.2996 14.0682 98.3029 12.8574C99.3087 12.2568 100.495 12 102.281 12C102.919 12 103.782 12.0483 104.615 12.0966L105.969 12.1671V26.6832L103.529 27.7642ZM102.102 13.877C99.6808 13.8763 98.4534 15.112 98.4534 17.544C98.4534 20.6753 100.284 21.3332 101.824 21.3332C102.198 21.3332 102.62 21.3332 103.552 21.2144V13.9446C102.822 13.8963 102.485 13.877 102.102 13.877Z" fill="white"/>
<mask id="mask0_281_2811" style="mask-type:luminance" maskUnits="userSpaceOnUse" x="17" y="0" width="19" height="24">
<path d="M17.2695 0.323975H35.9082V23.0936H17.2695V0.323975Z" fill="#0996C7"/>
</mask>
<g mask="url(#mask0_281_2811)">
<path d="M26.9423 0.323944L19.0602 21.9794C18.9628 22.246 18.7922 22.4798 18.568 22.654C18.3439 22.8282 18.0752 22.9358 17.7928 22.9645V22.9748H26.125C26.7773 22.9748 27.3358 22.5599 27.5436 21.9801L35.4285 0.323944H26.9423Z" fill="white"/>
</g>
<path d="M17.1128 22.6463C17.5961 22.6463 18.0192 22.406 18.2781 22.0422C18.305 22.0043 18.3996 21.8717 18.4666 21.6915L21.3576 13.7445L19.6663 9.10351C19.5678 8.86849 19.4083 8.66409 19.2042 8.5115C19.0001 8.3589 18.7589 8.26365 18.5056 8.23563C18.2524 8.2076 17.9962 8.24782 17.7637 8.35211C17.5312 8.4564 17.3308 8.62096 17.1833 8.82876C17.1556 8.86673 17.0431 9.03585 16.9948 9.17944L14.1037 17.1237L15.8026 21.7834C15.9128 22.0395 16.0956 22.2577 16.3285 22.411C16.5613 22.5644 16.834 22.6462 17.1128 22.6463Z" fill="white"/>
<mask id="mask1_281_2811" style="mask-type:luminance" maskUnits="userSpaceOnUse" x="-1" y="7" width="19" height="24">
<path d="M-0.678833 7.21616H17.9599V30.547H-0.678833V7.21616Z" fill="#0996C7"/>
</mask>
<g mask="url(#mask1_281_2811)">
<path d="M17.7307 7.89539H9.30665C8.6543 7.89539 8.09582 8.3082 7.88528 8.89083L0.00317383 30.5463H8.48931L16.3721 8.89152C16.4744 8.60979 16.6582 8.36488 16.9001 8.18797C17.1421 8.01106 17.4312 7.91017 17.7307 7.89815V7.89539Z" fill="white"/>
</g>
</g>
<defs>
<clipPath id="clip0_281_2811">
<rect width="107" height="30.3742" fill="white" transform="translate(0.0114746 0.312927)"/>
</clipPath>
</defs>
</svg>
