<svg width="227" height="72" viewBox="0 0 227 72" fill="none" xmlns="http://www.w3.org/2000/svg">
<path d="M1.22674 31.1638C1.22674 29.0564 2.09174 27.2477 3.82176 25.7379C5.58322 24.1966 7.65924 23.426 10.0498 23.426H10.5688L11.8899 18L14.1075 18.2831L12.8336 23.709C14.1861 23.9921 15.3185 24.3539 16.2307 24.7942L13.8244 29.8899C13.2267 29.4495 12.5033 29.0406 11.654 28.6632L10.4744 33.7117C12.2045 34.4351 13.4312 35.1114 14.1547 35.7405C15.5072 36.8729 16.1835 38.4299 16.1835 40.4115C16.1835 42.3617 15.3028 44.1547 13.5413 45.7903C11.8113 47.426 9.78244 48.2438 7.45478 48.2438H7.03014L5.66186 54L3.4443 53.6697L4.81258 47.8663C3.90039 47.6147 3.03539 47.2215 2.21756 46.6868C1.43119 46.152 0.865007 45.6802 0.519004 45.2713L0 44.7051L2.68938 40.9305C3.57012 41.9056 4.63958 42.692 5.89777 43.2896L7.21887 37.675C4.23067 36.4482 2.40629 35.0957 1.74574 33.6173C1.39974 32.8938 1.22674 32.076 1.22674 31.1638ZM7.87942 27.8139C7.25033 27.8139 6.66841 28.0183 6.13368 28.4273C5.63041 28.8362 5.37877 29.3709 5.37877 30.0315C5.37877 30.6606 5.63041 31.1953 6.13368 31.6356C6.63696 32.0446 7.37615 32.4535 8.35124 32.8624L9.5308 27.9554C9.05898 27.8611 8.50852 27.8139 7.87942 27.8139ZM12.0315 41.2608C12.0315 40.2857 11.135 39.3735 9.34207 38.5242L8.06815 43.903H8.63434C9.67235 43.903 10.4902 43.6671 11.0878 43.1953C11.7169 42.692 12.0315 42.0472 12.0315 41.2608Z" fill="#AEA6EE"/>
<path d="M38.8625 56.87C30.0465 56.87 24.4205 52.752 22.2745 46.778L31.1485 41.616C32.5985 45.096 35.0925 47.01 39.1525 47.01C42.8065 47.01 43.9085 45.676 43.9085 44.284C43.9085 41.964 41.2405 41.268 36.0785 39.818C29.6985 37.962 24.0145 34.714 24.0145 27.116C24.0145 19.518 30.2205 14.53 38.1085 14.53C44.8365 14.53 50.3465 17.72 53.1885 23.81L44.4885 28.914C43.2125 25.898 41.1245 24.39 38.1665 24.39C35.6145 24.39 34.3965 25.608 34.3965 27.058C34.3965 28.856 35.8465 29.842 41.3565 31.466C47.6205 33.322 54.2905 35.642 54.2905 44.168C54.2905 52.23 48.0265 56.87 38.8625 56.87ZM77.785 56.87C65.953 56.87 56.499 47.648 56.499 35.7C56.499 23.752 65.953 14.53 77.785 14.53C89.617 14.53 99.071 23.752 99.071 35.7C99.071 47.648 89.617 56.87 77.785 56.87ZM77.785 46.72C83.991 46.72 88.747 42.196 88.747 35.7C88.747 29.204 83.991 24.68 77.785 24.68C71.579 24.68 66.823 29.204 66.823 35.7C66.823 42.196 71.579 46.72 77.785 46.72ZM123.491 56.87C111.195 56.87 102.321 47.648 102.321 35.7C102.321 23.752 111.195 14.53 123.491 14.53C130.915 14.53 137.527 18.3 141.065 24.158L132.075 29.32C130.509 26.42 127.261 24.68 123.491 24.68C116.937 24.68 112.645 29.204 112.645 35.7C112.645 42.196 116.937 46.72 123.491 46.72C127.261 46.72 130.509 44.98 132.075 42.022L141.065 47.242C137.527 53.1 130.973 56.87 123.491 56.87ZM144.782 15.4H155.164V56H144.782V15.4ZM186.313 56L184.573 50.142H171.059L169.319 56H158.067L171.465 15.4H184.109L197.507 56H186.313ZM173.727 41.21H181.905L177.787 27.406L173.727 41.21ZM210.842 45.966H224.82V56H200.46V15.4H210.842V45.966Z" fill="url(#paint0_linear_725_1388)"/>
<defs>
<linearGradient id="paint0_linear_725_1388" x1="-13.9821" y1="-18.9" x2="232.05" y2="37.4749" gradientUnits="userSpaceOnUse">
<stop offset="0.00437258" stop-color="#C3BCF9"/>
<stop offset="1" stop-color="#5F53C7"/>
</linearGradient>
</defs>
</svg>
