<svg width="61" height="18" viewBox="0 0 61 18" fill="none" xmlns="http://www.w3.org/2000/svg">
<path d="M24.0521 8.73436C24.501 8.4794 24.8607 8.16196 25.1225 7.78765C25.4209 7.36147 25.5724 6.87468 25.5724 6.34164C25.5724 5.34368 25.1993 4.56475 24.4641 4.02609C23.7377 3.49367 22.7382 3.22404 21.4925 3.22404H16.9879V14.7837H21.6724C22.9844 14.7837 24.0348 14.4788 24.7944 13.8766C25.5599 13.2695 25.9486 12.4193 25.9486 11.3492C25.9486 10.6978 25.7658 10.1373 25.4058 9.68358C25.0828 9.27802 24.6279 8.95901 24.0521 8.73436ZM19.4256 5.30744H21.2965C21.8833 5.30744 22.3264 5.42117 22.6142 5.64488C22.8985 5.86578 23.0366 6.15605 23.0366 6.53192C23.0366 6.9078 22.8985 7.21275 22.6142 7.43458C22.3264 7.6583 21.8833 7.77203 21.2965 7.77203H19.4256V5.30744ZM22.9479 12.3085C22.6235 12.5684 22.1283 12.7 21.4763 12.7H19.4256V9.87105H21.4763C22.128 9.87105 22.6238 9.99821 22.9494 10.2479C23.2722 10.4969 23.4291 10.8256 23.4291 11.2539C23.4291 11.7044 23.2716 12.0495 22.9479 12.3088V12.3085Z" fill="#EDEDED"/>
<path d="M29.2421 6.13904H26.7881V14.7826H29.2421V6.13904Z" fill="#EDEDED"/>
<path d="M53.4792 7.43926C53.0908 6.97684 52.604 6.61439 52.0323 6.36163C51.4611 6.10917 50.8188 5.98044 50.1238 5.98044C49.2721 5.98044 48.5038 6.17384 47.8395 6.55503C47.1737 6.93747 46.6453 7.46863 46.2686 8.13477C45.8918 8.80028 45.7008 9.57265 45.7008 10.4297C45.7008 11.2867 45.8862 12.1101 46.2514 12.7859C46.6176 13.4638 47.144 13.9957 47.8159 14.3678C48.4863 14.7377 49.274 14.9255 50.1567 14.9255C51.2403 14.9255 52.1601 14.653 52.8913 14.1153C53.5954 13.5979 54.0797 12.8681 54.3435 11.9545H51.873C51.743 12.2653 51.5599 12.5299 51.2977 12.7165C50.9878 12.9365 50.5875 13.048 50.1076 13.048C49.6915 13.048 49.3349 12.9468 49.0478 12.7474C48.7594 12.5481 48.5391 12.2534 48.3945 11.8708C48.3076 11.6432 48.2461 11.3817 48.2098 11.0908H54.3866L54.3988 11.014C54.509 10.3169 54.4813 9.65639 54.3151 9.05087C54.1485 8.44378 53.8674 7.90168 53.4792 7.43926ZM48.2489 9.49047C48.2867 9.31457 48.3376 9.13148 48.4023 8.96463C48.5529 8.57689 48.7703 8.2785 49.049 8.07915C49.3265 7.87982 49.6718 7.7792 50.0754 7.7792C50.5813 7.7792 50.9965 7.94324 51.3096 8.266C51.6064 8.57313 51.7748 8.99275 51.8107 9.49047H48.2489Z" fill="#EDEDED"/>
<path d="M29.2916 3.22267H26.7352V5.30606H29.2916V3.22267Z" fill="#EDEDED"/>
<path d="M42.7307 7.11994C42.4405 6.77124 42.1002 6.50098 41.7165 6.31414C41.2585 6.09261 40.7226 5.98044 40.1237 5.98044C39.3904 5.98044 38.7329 6.16135 38.1705 6.51754C37.6088 6.87342 37.1632 7.37646 36.8467 8.01166C36.5314 8.64531 36.3711 9.38925 36.3711 10.2238C36.3711 11.0583 36.5396 11.7585 36.872 12.3966C37.205 13.0367 37.6669 13.5467 38.2443 13.9128C38.8229 14.28 39.4828 14.4662 40.2058 14.4662C40.7517 14.4662 41.2504 14.3481 41.6871 14.1147C42.033 13.9301 42.3226 13.6858 42.5511 13.3874V14.3284C42.5511 14.9118 42.3977 15.3595 42.0961 15.6579C41.7937 15.9563 41.3338 16.1069 40.7289 16.1069C40.2077 16.1069 39.7977 15.9888 39.5109 15.7553C39.2762 15.5644 39.0713 15.3139 39.0235 14.7833H36.6577C36.6796 15.5257 36.8977 16.026 37.2054 16.4643C37.5506 16.9555 38.0362 17.3394 38.6498 17.6047C39.2576 17.8669 39.9627 18 40.7454 18C42.0593 18 43.1053 17.6698 43.8537 17.0192C44.6067 16.365 44.9884 15.4489 44.9884 14.2969V6.13917H42.7307V7.11994ZM42.2986 11.372C42.143 11.6932 41.9234 11.945 41.6449 12.1194C41.3669 12.2938 41.0313 12.3825 40.647 12.3825C40.0915 12.3825 39.6596 12.1934 39.326 11.8042C38.9936 11.417 38.8251 10.8852 38.8251 10.2235C38.8251 9.56172 38.9936 9.02993 39.326 8.64218C39.6553 8.25818 40.0999 8.06384 40.647 8.06384C41.1941 8.06384 41.6774 8.261 42.0173 8.65093C42.3605 9.04399 42.5345 9.57858 42.5345 10.2388C42.5345 10.6665 42.4552 11.0474 42.2986 11.3717V11.372Z" fill="#EDEDED"/>
<path d="M60.3403 8.2059V6.13874H58.569V3.22267H56.1313V6.13874H54.6185V8.2059H56.1313V11.5897C56.1313 13.4709 56.5019 14.8536 58.8118 14.8107L60.2619 14.7822V12.8442H59.5423C58.5156 12.8442 58.5729 12.2455 58.5729 11.1338L58.5688 8.2059H60.3403Z" fill="#EDEDED"/>
<path d="M35.7758 8.2059V6.13874H34.0045V3.22267H31.5668V6.13874H30.054V8.2059H31.5668V11.5897C31.5668 13.4709 31.9374 14.8536 34.2473 14.8107L35.6974 14.7822V12.8442H34.9778C33.9511 12.8442 34.0082 12.2455 34.0082 11.1338L34.0043 8.2059H35.7758Z" fill="#EDEDED"/>
<path d="M6.77837 5.3067H10.4593L14.225 9.04826C14.4699 9.29165 14.4712 9.68752 14.2274 9.93218L9.39824 14.7857H5.60637L6.75274 13.6713L10.9617 9.48881L6.80616 5.30638" fill="#EDEDED"/>
<path d="M8.29074 9.47935H4.60979L0.844171 5.73779C0.599212 5.49439 0.597962 5.09852 0.841672 4.85388L5.67086 0H9.46272L8.31636 1.1145L4.10737 5.29692L8.26293 9.47935" fill="#EDEDED"/>
</svg>
