<svg width="66" height="22" viewBox="0 0 66 22" fill="none" xmlns="http://www.w3.org/2000/svg">
<path d="M46.632 16.9606V0H49.9421V16.9606H46.632Z" fill="#F7A600"/>
<path d="M8.0552 21.9987H0.958984V5.03808H7.76984C11.08 5.03808 13.0087 6.89609 13.0087 9.80244C13.0087 11.6837 11.77 12.8995 10.9126 13.3043C11.936 13.7805 13.246 14.8522 13.246 17.1163C13.246 20.2835 11.08 21.9987 8.0552 21.9987ZM7.50784 7.99245H4.26908V11.8991H7.50784C8.9126 11.8991 9.6986 11.1129 9.6986 9.94514C9.6986 8.77868 8.9126 7.99245 7.50784 7.99245ZM7.72186 14.8769H4.26908V19.0456H7.72186C9.22255 19.0456 9.93592 18.0933 9.93592 16.949C9.93592 15.8059 9.22122 14.8769 7.72186 14.8769Z" fill="#E8E8E8"/>
<path d="M23.3423 15.0429V21.9987H20.0555V15.0429L14.9594 5.03808H18.5548L21.7222 11.8745L24.8417 5.03808H28.4371L23.3423 15.0429Z" fill="#E8E8E8"/>
<path d="M37.8206 21.9987H30.7243V5.03808H37.5352C40.8453 5.03808 42.7741 6.89609 42.7741 9.80244C42.7741 11.6837 41.5354 12.8995 40.678 13.3043C41.7014 13.7805 43.0115 14.8522 43.0115 17.1163C43.0115 20.2835 40.8453 21.9987 37.8206 21.9987ZM37.2732 7.99245H34.0344V11.8991H37.2732C38.678 11.8991 39.464 11.1129 39.464 9.94514C39.464 8.77868 38.678 7.99245 37.2732 7.99245ZM37.4872 14.8769H34.0344V19.0456H37.4872C38.9879 19.0456 39.7013 18.0933 39.7013 16.949C39.7013 15.8059 38.9879 14.8769 37.4872 14.8769Z" fill="#E8E8E8"/>
<path d="M60.6114 7.99245V22H57.3013V7.99245H52.8718V5.03808H65.0408V7.99245H60.6114Z" fill="#E8E8E8"/>
</svg>
