<svg width="85" height="18" viewBox="0 0 85 18" fill="none" xmlns="http://www.w3.org/2000/svg">
<path d="M78.8461 15.9425V6.68532H82.7817C84.2605 6.68532 85.0001 7.39352 85.0001 8.80992V11.2886C85.0001 12.705 84.2605 13.4132 82.7817 13.4132H81.0515V15.9425H78.8461ZM81.0515 11.5795H82.623C82.7376 11.5795 82.7947 11.5247 82.7947 11.4151V8.68345C82.7947 8.57387 82.7376 8.51905 82.623 8.51905H81.0515V11.5795Z" fill="white"/>
<path d="M74.6067 12.8568C73.3301 12.8568 72.6921 12.2265 72.6921 10.9659C72.6921 9.70531 73.3301 9.075 74.6067 9.075H75.9171V8.5182C75.9171 8.41767 75.8678 8.36739 75.7689 8.36739H73.3642V7.28854L74.162 6.68532H75.9058C77.1821 6.68532 77.8204 7.33495 77.8204 8.6342V12.8568H74.6067ZM74.5951 11.0239C74.5951 11.1244 74.6447 11.1747 74.7433 11.1747H75.9171V10.5367H74.7433C74.6447 10.5367 74.5951 10.5869 74.5951 10.6875V11.0239Z" fill="white"/>
<path d="M62.4354 6.96374L62.6522 6.68532H64.4509L65.3057 11.1747H65.3566L66.3899 6.68532H68.7372L69.7706 11.1747H69.8214L70.6762 6.68532H72.4749L72.6921 6.96374L71.4416 12.8568H68.3163L67.5636 9.02859L66.8108 12.8568H63.6855L62.4354 6.96374Z" fill="white"/>
<path d="M55.2557 12.1412V10.9845H59.1145C59.2053 10.9845 59.251 10.9407 59.251 10.8533V10.0423C59.251 9.93105 59.2011 9.86742 59.1022 9.85155L56.8066 9.39836C55.7728 9.20756 55.2557 8.54371 55.2557 7.40681V6.72708C55.2557 5.3278 55.9836 4.62818 57.4394 4.62818H60.1939L61.1618 5.34372V6.50047H57.551C57.4601 6.50047 57.4145 6.5442 57.4145 6.63166V7.39491C57.4145 7.49825 57.4644 7.56184 57.5636 7.58571L59.8589 8.01503C60.8931 8.22171 61.4098 8.88954 61.4098 10.0185V10.7579C61.4098 12.1571 60.6819 12.8568 59.226 12.8568H56.2236L55.2557 12.1412Z" fill="white"/>
<path d="M50.1274 12.8568V7.52055C50.4423 6.96374 51.0557 6.68532 51.9675 6.68532H53.3598L54.2301 7.28854V8.36739H52.5889C52.39 8.36739 52.2617 8.40993 52.2037 8.49497V12.8568H50.1274Z" fill="white"/>
<path d="M42.9477 10.9079V8.6342C42.9477 7.33495 43.687 6.68532 45.1663 6.68532H46.8831C48.3621 6.68532 49.1017 7.33495 49.1017 8.6342V10.4786H45.1533V11.0239C45.1533 11.1244 45.2104 11.1747 45.3246 11.1747H48.8378V12.2535L47.9133 12.8568H45.1663C43.687 12.8568 42.9477 12.2071 42.9477 10.9079ZM45.1533 9.01702H46.8962V8.5182C46.8962 8.41767 46.8391 8.36739 46.7244 8.36739H45.3246C45.2104 8.36739 45.1533 8.41767 45.1533 8.5182V9.01702Z" fill="white"/>
<path d="M35.768 12.8568V3.59961H37.9735V6.20163H39.7034C41.1828 6.20163 41.9221 6.90217 41.9221 8.30325V10.7551C41.9221 12.1562 41.1828 12.8568 39.7034 12.8568H35.768ZM37.9735 11.0428H39.545C39.6594 11.0428 39.7169 10.9886 39.7169 10.8802V8.17815C39.7169 8.06971 39.6594 8.01553 39.545 8.01553H37.9735V11.0428Z" fill="white"/>
<path d="M28.5884 6.98885L28.8144 6.68532H30.729L32.1383 11.5795H32.2181L33.6274 6.68532H35.542L35.768 6.98885L32.9893 15.9425H31.0747L30.8486 15.6389L31.6065 13.4132H30.596L28.5884 6.98885Z" fill="white"/>
<path d="M21.4087 10.7579V6.72708C21.4087 5.3278 22.1125 4.62818 23.52 4.62818H26.627L27.5627 5.34372V6.50047H23.628C23.54 6.50047 23.496 6.5442 23.496 6.63166V10.8533C23.496 10.9407 23.54 10.9845 23.628 10.9845H27.5627V12.1412L26.627 12.8568H23.52C22.1125 12.8568 21.4087 12.1571 21.4087 10.7579Z" fill="white"/>
<mask id="mask0_1196_5709" style="mask-type:luminance" maskUnits="userSpaceOnUse" x="0" y="0" width="18" height="18">
<path d="M17.5503 0H0V18H17.5503V0Z" fill="white"/>
</mask>
<g mask="url(#mask0_1196_5709)">
<path d="M6.5363 13.3398H4.24854L8.75869 17.999V15.6527L6.5363 13.3398Z" fill="#0B9B01"/>
<path d="M15.2627 8.98242L13.0403 11.2953V13.6081L17.5504 8.98242H15.2627Z" fill="#0B9B01"/>
<path d="M13.0075 8.98242L11.4387 10.5914V12.9042L8.75879 15.6528V17.9992L13.0402 13.6081V8.98242H13.0075Z" fill="#0B9B01"/>
<path d="M4.24869 13.34H8.7588L7.19008 11.731H4.93502L2.25507 8.98242H0" fill="#0BDC0E"/>
<path d="M10.8505 8.98242L8.75879 11.1277V11.731V13.34L11.4387 10.5914V8.98242H10.8505Z" fill="#0B9B01"/>
<path d="M8.75866 11.1277L6.66702 8.98242H4.51001L7.18994 11.731H8.75866V11.1277Z" fill="#0B9B01"/>
<path d="M11.439 10.5914L13.0077 8.98242H11.439V10.5914Z" fill="#0B9B01"/>
<path d="M7.18994 11.7324L8.75866 13.3413V11.7324H7.18994Z" fill="#0B9B01"/>
<path d="M11.0138 4.62568H13.2689L8.75879 0V2.31285L11.0138 4.62568Z" fill="#0B9B01"/>
<path d="M2.25507 8.98314L4.51015 6.70378V4.35742L0 8.98314H2.25507Z" fill="#0B9B01"/>
<path d="M4.51001 4.32422V4.35681L4.54186 4.32422H4.51001Z" fill="#0B9B01"/>
<path d="M4.54268 4.32404L4.51001 4.35756V6.70392V8.98324L6.07873 7.37432V5.06144L8.75866 2.31285V0L4.54268 4.32404Z" fill="#0B9B01"/>
<path d="M13.2689 4.625H11.0138H8.75879L10.3602 6.23396H12.5826L15.2625 8.98256H17.5503" fill="#0BDC0E"/>
<path d="M6.66727 8.98256L8.75891 6.83732V6.23396V4.625L6.07897 7.3736V8.98256H4.51025H6.66727Z" fill="#0B9B01"/>
<path d="M6.07897 7.375L4.51025 8.98392H6.07897V7.375Z" fill="#0B9B01"/>
<path d="M10.3602 6.23396L8.75879 4.625V6.23396V6.83732L10.8505 8.98256H11.4387H13.0075L10.3602 6.23396Z" fill="#0B9B01"/>
</g>
</svg>
