<svg width="887" height="118" viewBox="0 0 887 118" fill="none" xmlns="http://www.w3.org/2000/svg">
<g clip-path="url(#clip0_1035_5724)">
<rect x="31" y="56.3809" width="820" height="10" rx="5" fill="url(#paint0_linear_1035_5724)"/>
<path d="M622.035 30H615.267L612.135 25.572L609.003 30H602.271L608.787 20.82L602.523 12H609.255L612.135 16.068L615.015 12H621.783L615.519 20.82L622.035 30ZM629.049 4.8H634.593V30H628.149V11.568L623.757 12.684L622.209 7.248L629.049 4.8ZM647.376 13.656C652.056 13.656 656.016 16.392 656.016 21.936C656.016 27.66 651.696 30.54 646.728 30.54C642.444 30.54 638.916 28.74 637.404 24.852L643.02 21.648C643.524 23.304 644.532 24.276 646.728 24.276C648.6 24.276 649.572 23.34 649.572 21.936C649.572 20.46 648.528 19.596 646.836 19.596H638.772L639.816 4.8H654.648V10.956H645.756L645.576 13.656H647.376Z" fill="#EAEAEA"/>
<path d="M605.223 92.6809H606.323V100.381H605.058V94.0339L603.507 94.4739L603.199 93.3959L605.223 92.6809ZM609.792 99.0609L609.022 101.921H608.032L608.472 99.0609H609.792ZM613.792 100.524C611.856 100.524 610.767 98.9069 610.767 96.5309C610.767 94.1549 611.856 92.5379 613.792 92.5379C615.728 92.5379 616.817 94.1549 616.817 96.5309C616.817 98.9069 615.728 100.524 613.792 100.524ZM613.792 99.2919C614.936 99.2919 615.552 98.3019 615.552 96.5309C615.552 94.7599 614.936 93.7699 613.792 93.7699C612.659 93.7699 612.032 94.7599 612.032 96.5309C612.032 98.3019 612.659 99.2919 613.792 99.2919ZM621.02 100.524C619.084 100.524 617.995 98.9069 617.995 96.5309C617.995 94.1549 619.084 92.5379 621.02 92.5379C622.956 92.5379 624.045 94.1549 624.045 96.5309C624.045 98.9069 622.956 100.524 621.02 100.524ZM621.02 99.2919C622.164 99.2919 622.78 98.3019 622.78 96.5309C622.78 94.7599 622.164 93.7699 621.02 93.7699C619.887 93.7699 619.26 94.7599 619.26 96.5309C619.26 98.3019 619.887 99.2919 621.02 99.2919ZM628.249 100.524C626.313 100.524 625.224 98.9069 625.224 96.5309C625.224 94.1549 626.313 92.5379 628.249 92.5379C630.185 92.5379 631.274 94.1549 631.274 96.5309C631.274 98.9069 630.185 100.524 628.249 100.524ZM628.249 99.2919C629.393 99.2919 630.009 98.3019 630.009 96.5309C630.009 94.7599 629.393 93.7699 628.249 93.7699C627.116 93.7699 626.489 94.7599 626.489 96.5309C626.489 98.3019 627.116 99.2919 628.249 99.2919ZM634.023 99.0609L633.253 101.921H632.263L632.703 99.0609H634.023ZM638.023 100.524C636.087 100.524 634.998 98.9069 634.998 96.5309C634.998 94.1549 636.087 92.5379 638.023 92.5379C639.959 92.5379 641.048 94.1549 641.048 96.5309C641.048 98.9069 639.959 100.524 638.023 100.524ZM638.023 99.2919C639.167 99.2919 639.783 98.3019 639.783 96.5309C639.783 94.7599 639.167 93.7699 638.023 93.7699C636.89 93.7699 636.263 94.7599 636.263 96.5309C636.263 98.3019 636.89 99.2919 638.023 99.2919ZM645.252 100.524C643.316 100.524 642.227 98.9069 642.227 96.5309C642.227 94.1549 643.316 92.5379 645.252 92.5379C647.188 92.5379 648.277 94.1549 648.277 96.5309C648.277 98.9069 647.188 100.524 645.252 100.524ZM645.252 99.2919C646.396 99.2919 647.012 98.3019 647.012 96.5309C647.012 94.7599 646.396 93.7699 645.252 93.7699C644.119 93.7699 643.492 94.7599 643.492 96.5309C643.492 98.3019 644.119 99.2919 645.252 99.2919ZM652.48 100.524C650.544 100.524 649.455 98.9069 649.455 96.5309C649.455 94.1549 650.544 92.5379 652.48 92.5379C654.416 92.5379 655.505 94.1549 655.505 96.5309C655.505 98.9069 654.416 100.524 652.48 100.524ZM652.48 99.2919C653.624 99.2919 654.24 98.3019 654.24 96.5309C654.24 94.7599 653.624 93.7699 652.48 93.7699C651.347 93.7699 650.72 94.7599 650.72 96.5309C650.72 98.3019 651.347 99.2919 652.48 99.2919Z" fill="#E3DDF4"/>
<g filter="url(#filter0_bd_1035_5724)">
<circle cx="629" cy="61.3809" r="12" fill="#493A91"/>
<circle cx="629" cy="61.3809" r="12" fill="url(#paint1_linear_1035_5724)" fill-opacity="0.3"/>
<circle cx="629" cy="61.3809" r="11.03" stroke="url(#paint2_linear_1035_5724)" stroke-opacity="0.15" stroke-width="1.94009"/>
</g>
<path d="M833.085 32H825.565L822.085 27.08L818.605 32H811.125L818.365 21.8L811.405 12H818.885L822.085 16.52L825.285 12H832.805L825.845 21.8L833.085 32ZM845.137 12.92C850.577 13.6 854.097 17.44 854.097 22.72C854.097 28.52 849.857 32.6 843.497 32.6C837.097 32.6 832.897 28.52 832.897 22.72C832.897 20.48 833.537 18.52 834.657 16.92L842.937 4H851.057L845.137 12.92ZM843.497 26.04C845.417 26.04 846.937 24.88 846.937 22.72C846.937 20.52 845.417 19.36 843.497 19.36C841.577 19.36 840.057 20.52 840.057 22.72C840.057 24.92 841.577 26.04 843.497 26.04ZM867.28 32.6C859.84 32.6 855.68 26.68 855.68 18C855.68 9.32 859.84 3.4 867.28 3.4C874.72 3.4 878.88 9.32 878.88 18C878.88 26.68 874.72 32.6 867.28 32.6ZM867.28 25.64C870.28 25.64 871.72 23.08 871.72 18C871.72 12.92 870.28 10.36 867.28 10.36C864.28 10.36 862.84 12.92 862.84 18C862.84 23.08 864.28 25.64 867.28 25.64Z" fill="#EAEAEA"/>
<path d="M816.039 93.5849C817.436 93.5849 818.657 94.4429 818.657 96.0489C818.657 97.6659 817.381 98.5239 815.962 98.5239C814.796 98.5239 813.751 97.9849 813.344 96.8739L814.433 96.2469C814.631 96.9289 815.159 97.2919 815.962 97.2919C816.82 97.2919 817.392 96.8189 817.392 96.0489C817.392 95.2789 816.82 94.8169 815.984 94.8169H813.74L814.037 90.6809H818.327V91.8689H815.203L815.071 93.5849H816.039ZM821.436 97.0609L820.666 99.9209H819.676L820.116 97.0609H821.436ZM825.436 98.5239C823.5 98.5239 822.411 96.9069 822.411 94.5309C822.411 92.1549 823.5 90.5379 825.436 90.5379C827.372 90.5379 828.461 92.1549 828.461 94.5309C828.461 96.9069 827.372 98.5239 825.436 98.5239ZM825.436 97.2919C826.58 97.2919 827.196 96.3019 827.196 94.5309C827.196 92.7599 826.58 91.7699 825.436 91.7699C824.303 91.7699 823.676 92.7599 823.676 94.5309C823.676 96.3019 824.303 97.2919 825.436 97.2919ZM832.665 98.5239C830.729 98.5239 829.64 96.9069 829.64 94.5309C829.64 92.1549 830.729 90.5379 832.665 90.5379C834.601 90.5379 835.69 92.1549 835.69 94.5309C835.69 96.9069 834.601 98.5239 832.665 98.5239ZM832.665 97.2919C833.809 97.2919 834.425 96.3019 834.425 94.5309C834.425 92.7599 833.809 91.7699 832.665 91.7699C831.532 91.7699 830.905 92.7599 830.905 94.5309C830.905 96.3019 831.532 97.2919 832.665 97.2919ZM839.894 98.5239C837.958 98.5239 836.869 96.9069 836.869 94.5309C836.869 92.1549 837.958 90.5379 839.894 90.5379C841.83 90.5379 842.919 92.1549 842.919 94.5309C842.919 96.9069 841.83 98.5239 839.894 98.5239ZM839.894 97.2919C841.038 97.2919 841.654 96.3019 841.654 94.5309C841.654 92.7599 841.038 91.7699 839.894 91.7699C838.761 91.7699 838.134 92.7599 838.134 94.5309C838.134 96.3019 838.761 97.2919 839.894 97.2919ZM845.667 97.0609L844.897 99.9209H843.907L844.347 97.0609H845.667ZM849.667 98.5239C847.731 98.5239 846.642 96.9069 846.642 94.5309C846.642 92.1549 847.731 90.5379 849.667 90.5379C851.603 90.5379 852.692 92.1549 852.692 94.5309C852.692 96.9069 851.603 98.5239 849.667 98.5239ZM849.667 97.2919C850.811 97.2919 851.427 96.3019 851.427 94.5309C851.427 92.7599 850.811 91.7699 849.667 91.7699C848.534 91.7699 847.907 92.7599 847.907 94.5309C847.907 96.3019 848.534 97.2919 849.667 97.2919ZM856.896 98.5239C854.96 98.5239 853.871 96.9069 853.871 94.5309C853.871 92.1549 854.96 90.5379 856.896 90.5379C858.832 90.5379 859.921 92.1549 859.921 94.5309C859.921 96.9069 858.832 98.5239 856.896 98.5239ZM856.896 97.2919C858.04 97.2919 858.656 96.3019 858.656 94.5309C858.656 92.7599 858.04 91.7699 856.896 91.7699C855.763 91.7699 855.136 92.7599 855.136 94.5309C855.136 96.3019 855.763 97.2919 856.896 97.2919ZM864.125 98.5239C862.189 98.5239 861.1 96.9069 861.1 94.5309C861.1 92.1549 862.189 90.5379 864.125 90.5379C866.061 90.5379 867.15 92.1549 867.15 94.5309C867.15 96.9069 866.061 98.5239 864.125 98.5239ZM864.125 97.2919C865.269 97.2919 865.885 96.3019 865.885 94.5309C865.885 92.7599 865.269 91.7699 864.125 91.7699C862.992 91.7699 862.365 92.7599 862.365 94.5309C862.365 96.3019 862.992 97.2919 864.125 97.2919ZM876.383 93.9699V95.0919H874.524V96.9509H873.402V95.0919H871.543V93.9699H873.402V92.1109H874.524V93.9699H876.383Z" fill="#E3DDF4"/>
<g filter="url(#filter1_bd_1035_5724)">
<circle cx="845" cy="61.3809" r="12" fill="#5F53C7"/>
<circle cx="845" cy="61.3809" r="12" fill="url(#paint3_linear_1035_5724)" fill-opacity="0.3"/>
<circle cx="845" cy="61.3809" r="11.03" stroke="url(#paint4_linear_1035_5724)" stroke-opacity="0.15" stroke-width="1.94009"/>
</g>
<path d="M21.2176 26H17.0816L15.1676 23.294L13.2536 26H9.13965L13.1216 20.39L9.29365 15H13.4076L15.1676 17.486L16.9276 15H21.0636L17.2356 20.39L21.2176 26ZM28.1439 26.33C24.0519 26.33 21.7639 23.074 21.7639 18.3C21.7639 13.526 24.0519 10.27 28.1439 10.27C32.2359 10.27 34.5239 13.526 34.5239 18.3C34.5239 23.074 32.2359 26.33 28.1439 26.33ZM28.1439 22.502C29.7939 22.502 30.5859 21.094 30.5859 18.3C30.5859 15.506 29.7939 14.098 28.1439 14.098C26.4939 14.098 25.7019 15.506 25.7019 18.3C25.7019 21.094 26.4939 22.502 28.1439 22.502ZM37.5953 26.308C36.3193 26.308 35.2853 25.296 35.2853 24.02C35.2853 22.766 36.3193 21.732 37.5953 21.732C38.8493 21.732 39.8833 22.766 39.8833 24.02C39.8833 25.296 38.8493 26.308 37.5953 26.308ZM47.1446 16.012C50.0046 16.012 52.4246 17.684 52.4246 21.072C52.4246 24.57 49.7846 26.33 46.7486 26.33C44.1306 26.33 41.9746 25.23 41.0506 22.854L44.4826 20.896C44.7906 21.908 45.4066 22.502 46.7486 22.502C47.8926 22.502 48.4866 21.93 48.4866 21.072C48.4866 20.17 47.8486 19.642 46.8146 19.642H41.8866L42.5246 10.6H51.5886V14.362H46.1546L46.0446 16.012H47.1446Z" fill="#EAEAEA"/>
<path d="M21.7651 100V99.01L24.4491 96.271C24.9991 95.721 25.4281 95.16 25.4281 94.577C25.4281 93.807 24.9001 93.389 24.2401 93.389C23.6021 93.389 23.1071 93.73 22.8101 94.346L21.7431 93.719C22.2381 92.663 23.2061 92.157 24.2291 92.157C25.4941 92.157 26.6931 93.004 26.6931 94.533C26.6931 95.49 26.1211 96.293 25.3841 97.041L23.6461 98.779H26.8361V100H21.7651ZM30.464 95.204C31.861 95.204 33.082 96.062 33.082 97.668C33.082 99.285 31.806 100.143 30.387 100.143C29.221 100.143 28.176 99.604 27.769 98.493L28.858 97.866C29.056 98.548 29.584 98.911 30.387 98.911C31.245 98.911 31.817 98.438 31.817 97.668C31.817 96.898 31.245 96.436 30.409 96.436H28.165L28.462 92.3H32.752V93.488H29.628L29.496 95.204H30.464ZM37.1122 100.143C35.1762 100.143 34.0872 98.526 34.0872 96.15C34.0872 93.774 35.1762 92.157 37.1122 92.157C39.0482 92.157 40.1372 93.774 40.1372 96.15C40.1372 98.526 39.0482 100.143 37.1122 100.143ZM37.1122 98.911C38.2562 98.911 38.8722 97.921 38.8722 96.15C38.8722 94.379 38.2562 93.389 37.1122 93.389C35.9792 93.389 35.3522 94.379 35.3522 96.15C35.3522 97.921 35.9792 98.911 37.1122 98.911Z" fill="#E3DDF4"/>
<g filter="url(#filter2_bd_1035_5724)">
<circle cx="31" cy="61" r="12" fill="#111011"/>
<circle cx="31" cy="61" r="11.03" stroke="url(#paint5_linear_1035_5724)" stroke-opacity="0.15" stroke-width="1.94009"/>
</g>
<path d="M229.631 27H224.743L222.481 23.802L220.219 27H215.357L220.063 20.37L215.539 14H220.401L222.481 16.938L224.561 14H229.449L224.925 20.37L229.631 27ZM230.173 27V23.62L236.205 17.25C237.219 16.158 237.947 15.326 237.947 14.442C237.947 13.584 237.375 12.934 236.335 12.934C235.191 12.934 234.385 13.688 233.891 14.832L229.887 12.596C231.109 9.736 233.631 8.41 236.283 8.41C239.559 8.41 242.601 10.464 242.601 14.182C242.601 16.47 241.353 18.186 239.689 19.928L237.219 22.502H242.913V27H230.173Z" fill="#EAEAEA"/>
<path d="M213.841 95.5849C215.238 95.5849 216.459 96.4429 216.459 98.0489C216.459 99.6659 215.183 100.524 213.764 100.524C212.598 100.524 211.553 99.9849 211.146 98.8739L212.235 98.2469C212.433 98.9289 212.961 99.2919 213.764 99.2919C214.622 99.2919 215.194 98.8189 215.194 98.0489C215.194 97.2789 214.622 96.8169 213.786 96.8169H211.542L211.839 92.6809H216.129V93.8689H213.005L212.873 95.5849H213.841ZM220.489 100.524C218.553 100.524 217.464 98.9069 217.464 96.5309C217.464 94.1549 218.553 92.5379 220.489 92.5379C222.425 92.5379 223.514 94.1549 223.514 96.5309C223.514 98.9069 222.425 100.524 220.489 100.524ZM220.489 99.2919C221.633 99.2919 222.249 98.3019 222.249 96.5309C222.249 94.7599 221.633 93.7699 220.489 93.7699C219.356 93.7699 218.729 94.7599 218.729 96.5309C218.729 98.3019 219.356 99.2919 220.489 99.2919ZM226.263 99.0609L225.493 101.921H224.503L224.943 99.0609H226.263ZM230.263 100.524C228.327 100.524 227.238 98.9069 227.238 96.5309C227.238 94.1549 228.327 92.5379 230.263 92.5379C232.199 92.5379 233.288 94.1549 233.288 96.5309C233.288 98.9069 232.199 100.524 230.263 100.524ZM230.263 99.2919C231.407 99.2919 232.023 98.3019 232.023 96.5309C232.023 94.7599 231.407 93.7699 230.263 93.7699C229.13 93.7699 228.503 94.7599 228.503 96.5309C228.503 98.3019 229.13 99.2919 230.263 99.2919ZM237.492 100.524C235.556 100.524 234.467 98.9069 234.467 96.5309C234.467 94.1549 235.556 92.5379 237.492 92.5379C239.428 92.5379 240.517 94.1549 240.517 96.5309C240.517 98.9069 239.428 100.524 237.492 100.524ZM237.492 99.2919C238.636 99.2919 239.252 98.3019 239.252 96.5309C239.252 94.7599 238.636 93.7699 237.492 93.7699C236.359 93.7699 235.732 94.7599 235.732 96.5309C235.732 98.3019 236.359 99.2919 237.492 99.2919ZM244.72 100.524C242.784 100.524 241.695 98.9069 241.695 96.5309C241.695 94.1549 242.784 92.5379 244.72 92.5379C246.656 92.5379 247.745 94.1549 247.745 96.5309C247.745 98.9069 246.656 100.524 244.72 100.524ZM244.72 99.2919C245.864 99.2919 246.48 98.3019 246.48 96.5309C246.48 94.7599 245.864 93.7699 244.72 93.7699C243.587 93.7699 242.96 94.7599 242.96 96.5309C242.96 98.3019 243.587 99.2919 244.72 99.2919Z" fill="#E3DDF4"/>
<g filter="url(#filter3_bd_1035_5724)">
<circle cx="229" cy="61.3809" r="12" fill="#181623"/>
<circle cx="229" cy="61.3809" r="11.03" stroke="url(#paint6_linear_1035_5724)" stroke-opacity="0.15" stroke-width="1.94009"/>
</g>
<path d="M425.566 28H419.926L417.316 24.31L414.706 28H409.096L414.526 20.35L409.306 13H414.916L417.316 16.39L419.716 13H425.356L420.136 20.35L425.566 28ZM442.661 19.9V24.79H440.561V28H435.221V24.79H426.011V19.9L432.281 7H438.221L431.891 19.9H435.221V16.12H440.561V19.9H442.661Z" fill="#EAEAEA"/>
<path d="M407.619 92.6809H408.719V100.381H407.454V94.0339L405.903 94.4739L405.595 93.3959L407.619 92.6809ZM410.01 92.6809H414.905V93.7809L412.199 100.381H410.868L413.53 93.8909H410.01V92.6809ZM418.229 95.5849C419.626 95.5849 420.847 96.4429 420.847 98.0489C420.847 99.6659 419.571 100.524 418.152 100.524C416.986 100.524 415.941 99.9849 415.534 98.8739L416.623 98.2469C416.821 98.9289 417.349 99.2919 418.152 99.2919C419.01 99.2919 419.582 98.8189 419.582 98.0489C419.582 97.2789 419.01 96.8169 418.174 96.8169H415.93L416.227 92.6809H420.517V93.8689H417.393L417.261 95.5849H418.229ZM423.627 99.0609L422.857 101.921H421.867L422.307 99.0609H423.627ZM427.627 100.524C425.691 100.524 424.602 98.9069 424.602 96.5309C424.602 94.1549 425.691 92.5379 427.627 92.5379C429.563 92.5379 430.652 94.1549 430.652 96.5309C430.652 98.9069 429.563 100.524 427.627 100.524ZM427.627 99.2919C428.771 99.2919 429.387 98.3019 429.387 96.5309C429.387 94.7599 428.771 93.7699 427.627 93.7699C426.494 93.7699 425.867 94.7599 425.867 96.5309C425.867 98.3019 426.494 99.2919 427.627 99.2919ZM434.856 100.524C432.92 100.524 431.831 98.9069 431.831 96.5309C431.831 94.1549 432.92 92.5379 434.856 92.5379C436.792 92.5379 437.881 94.1549 437.881 96.5309C437.881 98.9069 436.792 100.524 434.856 100.524ZM434.856 99.2919C436 99.2919 436.616 98.3019 436.616 96.5309C436.616 94.7599 436 93.7699 434.856 93.7699C433.723 93.7699 433.096 94.7599 433.096 96.5309C433.096 98.3019 433.723 99.2919 434.856 99.2919ZM442.084 100.524C440.148 100.524 439.059 98.9069 439.059 96.5309C439.059 94.1549 440.148 92.5379 442.084 92.5379C444.02 92.5379 445.109 94.1549 445.109 96.5309C445.109 98.9069 444.02 100.524 442.084 100.524ZM442.084 99.2919C443.228 99.2919 443.844 98.3019 443.844 96.5309C443.844 94.7599 443.228 93.7699 442.084 93.7699C440.951 93.7699 440.324 94.7599 440.324 96.5309C440.324 98.3019 440.951 99.2919 442.084 99.2919Z" fill="#E3DDF4"/>
<g filter="url(#filter4_bd_1035_5724)">
<circle cx="426" cy="61.3809" r="12" fill="#2A234B"/>
<circle cx="426" cy="61.3809" r="11.03" stroke="url(#paint7_linear_1035_5724)" stroke-opacity="0.15" stroke-width="1.94009"/>
</g>
</g>
<defs>
<filter id="filter0_bd_1035_5724" x="477.313" y="-90.3058" width="303.373" height="464.401" filterUnits="userSpaceOnUse" color-interpolation-filters="sRGB">
<feFlood flood-opacity="0" result="BackgroundImageFix"/>
<feGaussianBlur in="BackgroundImageFix" stdDeviation="69.8433"/>
<feComposite in2="SourceAlpha" operator="in" result="effect1_backgroundBlur_1035_5724"/>
<feColorMatrix in="SourceAlpha" type="matrix" values="0 0 0 0 0 0 0 0 0 0 0 0 0 0 0 0 0 0 127 0" result="hardAlpha"/>
<feMorphology radius="388.018" operator="erode" in="SourceAlpha" result="effect2_dropShadow_1035_5724"/>
<feOffset dy="203.71"/>
<feGaussianBlur stdDeviation="242.512"/>
<feComposite in2="hardAlpha" operator="out"/>
<feColorMatrix type="matrix" values="0 0 0 0 0.458917 0 0 0 0 0.370833 0 0 0 0 1 0 0 0 0.12 0"/>
<feBlend mode="normal" in2="effect1_backgroundBlur_1035_5724" result="effect2_dropShadow_1035_5724"/>
<feBlend mode="normal" in="SourceGraphic" in2="effect2_dropShadow_1035_5724" result="shape"/>
</filter>
<filter id="filter1_bd_1035_5724" x="693.313" y="-90.3058" width="303.373" height="464.401" filterUnits="userSpaceOnUse" color-interpolation-filters="sRGB">
<feFlood flood-opacity="0" result="BackgroundImageFix"/>
<feGaussianBlur in="BackgroundImageFix" stdDeviation="69.8433"/>
<feComposite in2="SourceAlpha" operator="in" result="effect1_backgroundBlur_1035_5724"/>
<feColorMatrix in="SourceAlpha" type="matrix" values="0 0 0 0 0 0 0 0 0 0 0 0 0 0 0 0 0 0 127 0" result="hardAlpha"/>
<feMorphology radius="388.018" operator="erode" in="SourceAlpha" result="effect2_dropShadow_1035_5724"/>
<feOffset dy="203.71"/>
<feGaussianBlur stdDeviation="242.512"/>
<feComposite in2="hardAlpha" operator="out"/>
<feColorMatrix type="matrix" values="0 0 0 0 0.458917 0 0 0 0 0.370833 0 0 0 0 1 0 0 0 0.12 0"/>
<feBlend mode="normal" in2="effect1_backgroundBlur_1035_5724" result="effect2_dropShadow_1035_5724"/>
<feBlend mode="normal" in="SourceGraphic" in2="effect2_dropShadow_1035_5724" result="shape"/>
</filter>
<filter id="filter2_bd_1035_5724" x="-120.687" y="-90.6866" width="303.373" height="464.401" filterUnits="userSpaceOnUse" color-interpolation-filters="sRGB">
<feFlood flood-opacity="0" result="BackgroundImageFix"/>
<feGaussianBlur in="BackgroundImageFix" stdDeviation="69.8433"/>
<feComposite in2="SourceAlpha" operator="in" result="effect1_backgroundBlur_1035_5724"/>
<feColorMatrix in="SourceAlpha" type="matrix" values="0 0 0 0 0 0 0 0 0 0 0 0 0 0 0 0 0 0 127 0" result="hardAlpha"/>
<feMorphology radius="388.018" operator="erode" in="SourceAlpha" result="effect2_dropShadow_1035_5724"/>
<feOffset dy="203.71"/>
<feGaussianBlur stdDeviation="242.512"/>
<feComposite in2="hardAlpha" operator="out"/>
<feColorMatrix type="matrix" values="0 0 0 0 0.458917 0 0 0 0 0.370833 0 0 0 0 1 0 0 0 0.12 0"/>
<feBlend mode="normal" in2="effect1_backgroundBlur_1035_5724" result="effect2_dropShadow_1035_5724"/>
<feBlend mode="normal" in="SourceGraphic" in2="effect2_dropShadow_1035_5724" result="shape"/>
</filter>
<filter id="filter3_bd_1035_5724" x="77.3134" y="-90.3058" width="303.373" height="464.401" filterUnits="userSpaceOnUse" color-interpolation-filters="sRGB">
<feFlood flood-opacity="0" result="BackgroundImageFix"/>
<feGaussianBlur in="BackgroundImageFix" stdDeviation="69.8433"/>
<feComposite in2="SourceAlpha" operator="in" result="effect1_backgroundBlur_1035_5724"/>
<feColorMatrix in="SourceAlpha" type="matrix" values="0 0 0 0 0 0 0 0 0 0 0 0 0 0 0 0 0 0 127 0" result="hardAlpha"/>
<feMorphology radius="388.018" operator="erode" in="SourceAlpha" result="effect2_dropShadow_1035_5724"/>
<feOffset dy="203.71"/>
<feGaussianBlur stdDeviation="242.512"/>
<feComposite in2="hardAlpha" operator="out"/>
<feColorMatrix type="matrix" values="0 0 0 0 0.458917 0 0 0 0 0.370833 0 0 0 0 1 0 0 0 0.12 0"/>
<feBlend mode="normal" in2="effect1_backgroundBlur_1035_5724" result="effect2_dropShadow_1035_5724"/>
<feBlend mode="normal" in="SourceGraphic" in2="effect2_dropShadow_1035_5724" result="shape"/>
</filter>
<filter id="filter4_bd_1035_5724" x="274.313" y="-90.3058" width="303.373" height="464.401" filterUnits="userSpaceOnUse" color-interpolation-filters="sRGB">
<feFlood flood-opacity="0" result="BackgroundImageFix"/>
<feGaussianBlur in="BackgroundImageFix" stdDeviation="69.8433"/>
<feComposite in2="SourceAlpha" operator="in" result="effect1_backgroundBlur_1035_5724"/>
<feColorMatrix in="SourceAlpha" type="matrix" values="0 0 0 0 0 0 0 0 0 0 0 0 0 0 0 0 0 0 127 0" result="hardAlpha"/>
<feMorphology radius="388.018" operator="erode" in="SourceAlpha" result="effect2_dropShadow_1035_5724"/>
<feOffset dy="203.71"/>
<feGaussianBlur stdDeviation="242.512"/>
<feComposite in2="hardAlpha" operator="out"/>
<feColorMatrix type="matrix" values="0 0 0 0 0.458917 0 0 0 0 0.370833 0 0 0 0 1 0 0 0 0.12 0"/>
<feBlend mode="normal" in2="effect1_backgroundBlur_1035_5724" result="effect2_dropShadow_1035_5724"/>
<feBlend mode="normal" in="SourceGraphic" in2="effect2_dropShadow_1035_5724" result="shape"/>
</filter>
<linearGradient id="paint0_linear_1035_5724" x1="31" y1="61.3809" x2="851" y2="61.3809" gradientUnits="userSpaceOnUse">
<stop offset="0.16" stop-color="#111011"/>
<stop offset="1" stop-color="#4E3E9F"/>
</linearGradient>
<linearGradient id="paint1_linear_1035_5724" x1="625.187" y1="44.0785" x2="665.14" y2="208.177" gradientUnits="userSpaceOnUse">
<stop stop-color="#250037"/>
<stop offset="1" stop-opacity="0"/>
</linearGradient>
<linearGradient id="paint2_linear_1035_5724" x1="628.97" y1="49.0601" x2="635.935" y2="74.5578" gradientUnits="userSpaceOnUse">
<stop stop-color="white"/>
<stop offset="1" stop-color="#999999"/>
</linearGradient>
<linearGradient id="paint3_linear_1035_5724" x1="841.187" y1="44.0785" x2="881.14" y2="208.177" gradientUnits="userSpaceOnUse">
<stop stop-color="#250037"/>
<stop offset="1" stop-opacity="0"/>
</linearGradient>
<linearGradient id="paint4_linear_1035_5724" x1="844.97" y1="49.0601" x2="851.935" y2="74.5578" gradientUnits="userSpaceOnUse">
<stop stop-color="white"/>
<stop offset="1" stop-color="#999999"/>
</linearGradient>
<linearGradient id="paint5_linear_1035_5724" x1="30.9702" y1="48.6792" x2="37.9354" y2="74.177" gradientUnits="userSpaceOnUse">
<stop stop-color="white"/>
<stop offset="1" stop-color="#999999"/>
</linearGradient>
<linearGradient id="paint6_linear_1035_5724" x1="228.97" y1="49.0601" x2="235.935" y2="74.5578" gradientUnits="userSpaceOnUse">
<stop stop-color="white"/>
<stop offset="1" stop-color="#999999"/>
</linearGradient>
<linearGradient id="paint7_linear_1035_5724" x1="425.97" y1="49.0601" x2="432.935" y2="74.5578" gradientUnits="userSpaceOnUse">
<stop stop-color="white"/>
<stop offset="1" stop-color="#999999"/>
</linearGradient>
<clipPath id="clip0_1035_5724">
<rect width="887" height="118" fill="white"/>
</clipPath>
</defs>
</svg>
