<svg width="75" height="10" viewBox="0 0 75 10" fill="none" xmlns="http://www.w3.org/2000/svg">
<path d="M17.7688 7.06572L13.8686 0.954502C13.0174 -0.318189 10.921 -0.329655 10.0952 1.01184L6.00428 7.36383C5.24199 8.53334 6.18214 9.98948 7.71941 9.98948H15.9394C17.4767 10.0009 18.6328 8.48748 17.7688 7.06572Z" fill="#003087"/>
<path d="M12.1405 7.54624L11.8991 7.16787C11.6704 6.81244 11.1749 6.05571 11.1749 6.05571L7.87171 0.873211C7.02049 -0.273359 4.98773 -0.376552 4.13651 1.0796L0.286963 7.08761C-0.513438 8.34884 0.439422 9.98844 2.16727 9.9999H15.8884C13.7794 10.0114 13.1061 9.01385 12.1405 7.54624Z" fill="#1877F2"/>
<path d="M12.1409 7.52373L11.8995 7.14536C11.6708 6.78993 11.1754 6.03319 11.1754 6.03319L9.04096 2.63934L5.9791 7.36321C5.21681 8.53271 6.15696 9.98886 7.69424 9.98886H15.8888C13.7671 9.9774 13.1065 9.00281 12.1409 7.52373Z" fill="url(#paint0_linear_1196_5705)"/>
<path d="M68.546 2.62193C69.1176 2.14037 70.1213 1.91106 71.5823 1.91106H75V0.156806H70.9598C69.9942 0.156806 69.1812 0.248536 68.546 0.431986C67.9233 0.615437 67.377 0.902077 66.907 1.30338C66.4115 1.73907 66.0176 2.27796 65.7382 2.92004C65.4587 3.57358 65.3189 4.28445 65.3189 5.02973C65.3189 5.7406 65.4587 6.42854 65.7382 7.05916C66.0176 7.68978 66.4115 8.24012 66.907 8.67582C67.3644 9.07712 67.9107 9.36376 68.5205 9.54722C69.143 9.73067 69.9688 9.82239 70.9598 9.82239H75V8.09108H71.5823C70.8074 8.09108 70.2737 8.06814 69.9688 8.0108C69.6512 7.95348 69.3591 7.86176 69.1176 7.72416C68.6349 7.44899 68.2664 7.09355 68.025 6.64639C67.7963 6.21069 67.682 5.66035 67.682 5.01827C67.682 3.91755 67.9742 3.10349 68.546 2.62193Z" fill="#EDEDED"/>
<path d="M38.8044 9.84496H48.3331V8.14804H41.1294V5.72877H47.4183V4.12357H41.1294V1.87629H48.3331V0.167908H38.8044V9.84496Z" fill="#EDEDED"/>
<path d="M50.7089 0.167908L55.1684 5.00643L50.7089 9.84496H53.593L57.1122 6.01542V4.00891L53.593 0.167908H50.7089Z" fill="#EDEDED"/>
<path d="M61.5331 0.167908L58.0139 4.00891V6.01542L61.5331 9.84496H64.4172L59.945 5.00643L64.4172 0.167908H61.5331Z" fill="#EDEDED"/>
<path d="M29.467 4.93764L25.1854 0.167908H22.9748V9.84496H25.2998V3.38977L29.0096 7.40277H29.9116L33.6214 3.35538V9.84496H35.9463V0.167908H33.7612L29.467 4.93764Z" fill="#EDEDED"/>
<defs>
<linearGradient id="paint0_linear_1196_5705" x1="-6.06194" y1="3.51445" x2="7.37245" y2="33.3011" gradientUnits="userSpaceOnUse">
<stop stop-color="#003087" stop-opacity="0"/>
<stop offset="1" stop-color="#003087"/>
</linearGradient>
</defs>
</svg>
